<?xml version="1.0" encoding="UTF-8" standalone="no"?>
<!-- Created with Inkscape (http://www.inkscape.org/) -->

<svg
   xmlns:dc="http://purl.org/dc/elements/1.1/"
   xmlns:cc="http://creativecommons.org/ns#"
   xmlns:rdf="http://www.w3.org/1999/02/22-rdf-syntax-ns#"
   xmlns:svg="http://www.w3.org/2000/svg"
   xmlns="http://www.w3.org/2000/svg"
   xmlns:sodipodi="http://sodipodi.sourceforge.net/DTD/sodipodi-0.dtd"
   xmlns:inkscape="http://www.inkscape.org/namespaces/inkscape"
   width="210mm"
   height="90mm"
   viewBox="0 0 210 90"
   version="1.1"
   id="svg8"
   inkscape:version="0.92.3 (2405546, 2018-03-11)"
   sodipodi:docname="toucan_404.svg">
  <defs
     id="defs2" />
  <sodipodi:namedview
     id="base"
     pagecolor="#ffffff"
     bordercolor="#666666"
     borderopacity="1.0"
     inkscape:pageopacity="0.0"
     inkscape:pageshadow="2"
     inkscape:zoom="0.7"
     inkscape:cx="334.20373"
     inkscape:cy="390.37825"
     inkscape:document-units="mm"
     inkscape:current-layer="g1035"
     showgrid="false"
     inkscape:window-width="1863"
     inkscape:window-height="1025"
     inkscape:window-x="57"
     inkscape:window-y="27"
     inkscape:window-maximized="1" />
  <metadata
     id="metadata5">
    <rdf:RDF>
      <cc:Work
         rdf:about="">
        <dc:format>image/svg+xml</dc:format>
        <dc:type
           rdf:resource="http://purl.org/dc/dcmitype/StillImage" />
        <dc:title></dc:title>
      </cc:Work>
    </rdf:RDF>
  </metadata>
  <g
     inkscape:label="Calque 1"
     inkscape:groupmode="layer"
     id="layer1"
     transform="translate(0,-207)">
    <g
       id="g3989"
       transform="matrix(0.03055543,-0.16787128,0.16787128,0.03055543,90.572365,296.15564)">
      <path
         inkscape:connector-curvature="0"
         id="path3609"
         d="m 296.52582,-456.68503 3.75349,-11.26047 h 15.01397 15.01396 v 15.01396 q 0,15.01397 -3.75349,26.27445 -3.75349,11.26047 -15.01397,15.01396 -11.26047,3.7535 -26.27443,3.7535 -15.01397,0 -29.55875,0.46918 l -14.54478,0.46919 -0.46919,3.2843 -0.46918,3.2843 0.93837,-6.5686 q 0.93837,-6.56861 2.81512,-12.19885 l 1.87674,-5.63024 -2.81511,8.44536 -2.81512,8.44536 3.75349,-11.26048 q 3.7535,-11.26047 15.01397,-15.01397 11.26047,-3.75349 22.52095,-7.50698 11.26047,-3.75349 15.01396,-15.01397"
         style="fill:#fbae1d;fill-opacity:1;stroke:#f5921d;stroke-width:1.49555099;stroke-linecap:round;stroke-linejoin:round;stroke-miterlimit:4;stroke-dasharray:none;stroke-opacity:1;paint-order:normal" />
      <path
         inkscape:connector-curvature="0"
         id="path3613"
         d="m 157.64664,-392.87567 q 0,-7.50699 7.50698,-7.50699 7.50699,0 15.01396,7.50699 7.50699,7.50698 18.76746,11.26047 l 11.26048,3.75349 -8.44536,-2.81511 -8.44535,-2.81512 5.63023,1.87674 q 5.63024,1.87675 12.19885,2.81512 l 6.56861,0.93837 -3.2843,-0.46918 -3.28431,-0.46919 -0.46918,15.48315 -0.46919,15.48316 -15.48316,0.46919 -15.48315,0.46918 0.46919,3.2843 0.46918,3.28431 -0.93837,-6.56861 q -0.93837,-6.56861 -2.81512,-12.19885 l -1.87674,-5.63023 2.81512,8.44535 2.81511,8.44536 -3.75349,-11.26048 q -3.75348,-11.26047 -11.26047,-18.76746 -7.50698,-7.50698 -7.50698,-15.01396"
         style="fill:#fbae1d;fill-opacity:1;stroke:#f5921d;stroke-width:1.49555099;stroke-linecap:round;stroke-linejoin:round;stroke-miterlimit:4;stroke-dasharray:none;stroke-opacity:1;paint-order:normal" />
      <path
         sodipodi:nodetypes="ccccsscccccssscccsscccccccssccccccccccc"
         inkscape:connector-curvature="0"
         id="path3615"
         d="m 240.22345,-392.87567 v -15.01396 11.26047 11.26047 -7.50698 c 0,-5.00466 0.31279,-9.69652 0.93837,-14.07559 l 0.93837,-6.56861 -0.46918,3.2843 -0.46919,3.28431 14.54478,-0.46919 14.54478,-0.46918 v 15.01396 c 0,10.0093 -1.25117,18.76746 -3.75349,26.27444 -2.50232,7.50698 -7.50698,12.51164 -15.01397,15.01397 l -11.26047,3.75349 8.44536,-2.81512 8.44535,-2.81512 -5.63024,1.87675 c -3.75348,1.25116 -7.81977,2.18953 -12.19884,2.81511 l -6.56862,0.93838 3.28431,-0.46919 3.28431,-0.46919 -1.40756,-16.42152 -1.40756,-16.42153 -1.87675,1.87675 -1.87675,1.87674 3.7535,-3.75349 c 2.50232,-2.50233 3.75349,-6.25581 3.75349,-11.26047 v -7.50699 11.26048 c 0,16.70417 0,7.79509 0,-3.75349 m 33.78142,-15.01396 h -3.75349 -11.26047 -11.26047 7.50697 15.01397 7.50698 -3.75349"
         style="fill:#f5921d;fill-opacity:1;stroke:#f5921d;stroke-width:1.49555099;stroke-linecap:round;stroke-linejoin:round;stroke-miterlimit:4;stroke-dasharray:none;stroke-opacity:1;paint-order:normal" />
      <path
         inkscape:connector-curvature="0"
         id="path3617"
         d="m 270.25138,-392.87567 v -15.01396 h 15.01397 15.01396 -11.26048 -11.26047 7.50699 q 7.50698,0 14.07559,-0.93838 l 6.56861,-0.93838 -3.28431,0.46919 -3.2843,0.46919 0.46919,15.48315 0.46918,15.48315 v -11.26047 -11.26048 7.50699 q 0,7.50698 2.81512,12.19885 l 2.81512,4.69186 -1.40756,-2.34593 -1.40756,-2.34593 -1.40756,16.42152 -1.40756,16.42153 v -11.26048 -11.26047 7.50698 q 0,7.50698 0.93838,14.07559 l 0.93837,6.56862 -0.46919,-3.28431 -0.46918,-3.28431 -11.72967,4.22268 q -11.72966,4.22268 -15.48315,15.48315 l -3.75349,11.26048 h -15.01397 q -15.01396,0 -18.76745,11.26047 -3.7535,11.26048 4.69186,19.70583 l 8.44536,8.44535 1.87674,-1.87674 1.87675,-1.87675 -3.75349,3.75349 q -3.7535,3.7535 -5.63024,9.38373 l -1.87675,5.63024 2.81512,-8.44535 2.81513,-8.44536 -3.7535,11.26047 -3.75349,11.26048 2.81512,-8.44535 2.81511,-8.44536 -1.87674,5.63023 q -1.87675,5.63024 -2.81512,12.19885 l -0.93837,6.56861 0.46918,-3.2843 0.46919,-3.28431 -15.48315,-0.46918 -15.48315,-0.46919 v -15.01397 q 0,-15.01396 0,-30.02793 0,-15.01396 0,-30.02793 v -15.01396 h 15.01397 q 15.01396,0 26.27443,-3.75349 11.26048,-3.7535 15.01397,-15.01397 3.75349,-11.26048 3.75349,-26.27444 m -60.05586,123.86521 v 11.26048 3.75349 3.75349 -7.50698 q 0,-7.50698 0,-15.01397 v -7.50698 11.26047 m 71.31634,-138.87917 h -11.26048 -3.75349 -3.75349 7.50698 q 7.50698,0 15.01397,0 h 7.50698 -11.26047"
         style="fill:#fd0000;fill-opacity:1;stroke:#f5921d;stroke-width:1.49555099;stroke-linecap:round;stroke-linejoin:round;stroke-miterlimit:4;stroke-dasharray:none;stroke-opacity:1;paint-order:normal" />
      <path
         sodipodi:nodetypes="ccccssccccccsscccccccsscccccc"
         inkscape:connector-curvature="0"
         id="path3619"
         d="m 210.66471,-363.31693 0.46918,-15.48315 -3.28431,-0.46918 -3.2843,-0.46919 6.56861,0.93837 c 4.37907,0.62558 9.07094,0.93837 14.0756,0.93837 h 7.50697 -11.26047 -11.26047 15.01397 c 1.25117,0 2.50231,0 3.75349,0 h -11.26048 7.50699 c 5.00465,0 8.75814,-1.25116 11.26047,-3.75349 l 3.75349,-3.75349 -1.87674,1.87675 -1.87675,1.87674 1.40756,16.42153 1.40756,16.42152 3.2843,-0.46919 3.2843,-0.46918 -6.5686,0.93837 c -4.37907,0.62559 -9.07094,0.93838 -14.07559,0.93838 h -7.50699 11.26048 11.26047 -15.01396 -15.01397 l 0.46919,-15.48316"
         style="fill:#fb8916;fill-opacity:1;stroke:#f5921d;stroke-width:1.49555099;stroke-linecap:round;stroke-linejoin:round;stroke-miterlimit:4;stroke-dasharray:none;stroke-opacity:1;paint-order:normal" />
      <path
         inkscape:connector-curvature="0"
         id="path3621"
         d="m 301.68687,-364.2553 1.40756,-16.42152 -1.40756,-2.34594 -1.40756,-2.34593 2.81512,4.69187 q 2.81512,4.69186 8.44535,6.56861 l 5.63024,1.87674 -8.44535,-2.81511 -8.44536,-2.81513 11.26047,3.7535 q 11.26048,3.75349 15.01397,15.01396 l 3.75349,11.26048 -2.81511,-8.44536 -2.81512,-8.44535 1.87674,5.63023 q 1.87675,5.63024 5.63024,9.38373 l 3.75349,3.75349 -1.87674,-1.87674 -1.87675,-1.87675 -15.95234,0.93837 -15.95234,0.93838 1.40756,-16.42153"
         style="fill:#f5921d;fill-opacity:1;stroke:#f5921d;stroke-width:1.49555099;stroke-linecap:round;stroke-linejoin:round;stroke-miterlimit:4;stroke-dasharray:none;stroke-opacity:1;paint-order:normal" />
      <path
         sodipodi:nodetypes="ccccsscccccccccssscccsscccsscsscccsscccccccsscccccccscccccccsssssc"
         inkscape:connector-curvature="0"
         id="path3623"
         d="m 180.16758,-332.81981 v -15.01396 11.26047 11.26047 -7.50698 c 0,-5.00465 -0.31278,-9.69652 -0.93837,-14.07559 l -0.93837,-6.56861 0.46919,3.2843 0.46918,3.28431 15.48315,-0.46918 15.48316,-0.46919 v 15.01396 30.02793 30.02793 15.01397 l -11.26048,3.75349 c -7.50698,2.50232 -13.7628,6.25582 -18.76746,11.26048 -5.00465,5.00465 -4.69186,10.3221 0.93838,15.95233 l 8.44535,8.44536 1.87675,-1.87674 1.87675,-1.87675 -3.7535,3.75349 c -2.50232,2.50233 -4.37907,5.63023 -5.63023,9.38373 l -1.87674,5.63023 2.81511,-8.44535 2.81512,-8.44535 -3.75349,11.26047 c -2.50233,7.50698 -3.7535,16.26513 -3.7535,26.27444 v 30.02793 30.02793 c 0,10.0093 1.25118,18.76745 3.7535,26.274439 l 3.75349,11.260474 -2.81512,-8.445357 -2.81511,-8.445346 1.87674,5.630229 c 1.25117,3.753489 3.12791,6.88141 5.63023,9.38373 l 3.7535,3.753489 -1.87675,-1.876745 -1.87675,-1.876744 -8.91454,8.914539 -8.91454,8.914548 2.34593,1.407554 2.34593,1.407563 -4.69186,-2.815117 c -3.12791,-1.876752 -6.56861,-3.440692 -10.3221,-4.691869 l -5.63024,-1.876744 8.44536,2.815116 8.44536,2.815117 -11.26048,-3.753489 -11.26047,-3.753488 8.44535,2.815116 8.44536,2.815117 -5.63024,-1.876745 c -3.75349,-1.25126 -7.81977,-2.189632 -12.19884,-2.815116 -3.32986,-0.475646 -3.71172,-0.530295 0,0 l 0.46918,-15.483153 0.46919,-15.483148 v -15.01397 -30.02793 -30.02793 -30.02794 c 0,-10.0093 1.25116,-18.76745 3.75349,-26.27443 2.50233,-7.50699 6.25581,-13.76281 11.26047,-18.76746 5.00466,-5.00466 8.75815,-11.26048 11.26047,-18.76745 2.50233,-7.50699 3.75349,-16.26514 3.75349,-26.27445 v -30.02793"
         style="fill:#f5921d;fill-opacity:1;stroke:#f5921d;stroke-width:1.49555099;stroke-linecap:round;stroke-linejoin:round;stroke-miterlimit:4;stroke-dasharray:none;stroke-opacity:1;paint-order:normal" />
      <path
         inkscape:connector-curvature="0"
         id="path3625"
         d="m 274.00487,-329.06632 q 3.75349,-11.26047 15.48315,-15.48315 l 11.72967,-4.22268 -0.46919,-3.2843 -0.46919,-3.28431 0.93838,6.56861 q 0.93837,6.56862 2.81512,12.19885 l 1.87674,5.63024 -2.81512,-8.44536 -2.81512,-8.44535 3.7535,11.26047 3.75348,11.26047 -2.81511,-8.44535 -2.81512,-8.44535 1.87675,5.63023 q 1.87674,5.63024 4.69186,10.3221 l 2.81511,4.69186 -1.40755,-2.34592 -1.40756,-2.34594 -8.91454,8.91454 -8.91454,8.91455 1.87674,1.87674 1.87675,1.87675 -3.75349,-3.75349 q -3.7535,-3.7535 -9.38373,-5.63024 l -5.63024,-1.87675 8.44535,2.81512 8.44536,2.81512 -10.79129,-3.2843 -10.79128,-3.28431 -0.46919,3.28431 -0.46919,3.2843 0.93838,-6.56861 q 0.93837,-6.56861 2.81511,-12.19885 l 1.87675,-5.63024 -2.81512,8.44536 -2.81512,8.44536 3.75349,-11.26048"
         style="fill:#fa1705;fill-opacity:1;stroke:#f5921d;stroke-width:1.49555099;stroke-linecap:round;stroke-linejoin:round;stroke-miterlimit:4;stroke-dasharray:none;stroke-opacity:1;paint-order:normal" />
      <path
         inkscape:connector-curvature="0"
         id="path3627"
         d="m 304.03281,-336.5733 -3.7535,-11.26047 15.95234,-0.93838 15.95234,-0.93837 2.81512,12.19885 2.81512,12.19884 -2.81512,-8.44535 -2.81512,-8.44535 1.87675,5.63023 q 1.87674,5.63024 5.63023,9.38373 l 3.75349,3.75349 -1.87674,-1.87675 -1.87675,-1.87674 -8.44536,8.44536 -8.44535,8.44535 -7.50698,-7.50698 q -7.50699,-7.50699 -11.26047,-18.76746 m 13.13721,20.6442 5.63024,5.63024 1.87675,1.87675 1.87674,1.87674 -3.75349,-3.75349 q -3.75349,-3.75349 -7.50698,-7.50698 l -3.7535,-3.7535 5.63024,5.63024"
         style="fill:#f5891a;fill-opacity:1;stroke:#f5921d;stroke-width:1.49555099;stroke-linecap:round;stroke-linejoin:round;stroke-miterlimit:4;stroke-dasharray:none;stroke-opacity:1;paint-order:normal" />
      <path
         inkscape:connector-curvature="0"
         id="path3629"
         d="m 334.99911,-337.51167 -2.81512,-12.19885 -1.87675,-1.87674 -1.87674,-1.87675 3.75349,3.75349 q 3.75349,3.75349 9.38373,5.63023 l 5.63024,1.87676 -8.44536,-2.81513 -8.44536,-2.81511 11.26048,3.75348 q 11.26047,3.7535 15.01397,15.01397 l 3.75349,11.26048 -2.81512,-8.44536 -2.81513,-8.44536 1.87676,5.63024 q 1.87674,5.63024 5.63023,9.38373 l 3.75349,3.75349 -1.87675,-1.87674 -1.87674,-1.87675 -12.19885,-2.81512 q -12.19884,-2.81512 -15.01396,-15.01396"
         style="fill:#fbae1d;fill-opacity:1;stroke:#f5921d;stroke-width:1.49555099;stroke-linecap:round;stroke-linejoin:round;stroke-miterlimit:4;stroke-dasharray:none;stroke-opacity:1;paint-order:normal" />
      <path
         inkscape:connector-curvature="0"
         id="path3631"
         d="m 236.46996,-306.54537 q 3.75349,-11.26047 18.76745,-11.26047 h 15.01397 v 15.01396 15.01397 l -11.26047,3.75349 -11.26047,3.75349 8.44534,-2.81512 8.44536,-2.81511 -5.63023,1.87674 q -5.63024,1.87674 -9.38373,5.63023 l -3.7535,3.7535 1.87676,-1.87674 1.87674,-1.87676 -8.44536,-8.44535 q -8.44536,-8.44535 -4.69186,-19.70583 m 33.78142,22.52095 v -3.75349 -11.26047 -11.26048 7.50698 q 0,7.50699 0,15.01397 v 7.50698 -3.75349"
         style="fill:#fc0a02;fill-opacity:1;stroke:#f5921d;stroke-width:1.49555099;stroke-linecap:round;stroke-linejoin:round;stroke-miterlimit:4;stroke-dasharray:none;stroke-opacity:1;paint-order:normal" />
      <path
         inkscape:connector-curvature="0"
         id="path3633"
         d="m 270.25138,-302.79188 v -15.01396 11.26047 11.26048 -7.50699 q 0,-7.50698 0.93838,-14.07559 l 0.93837,-6.56861 -0.46919,3.2843 -0.46918,3.28431 10.79128,3.28431 q 10.79129,3.2843 14.54478,14.54478 l 3.75349,11.26047 h -15.01396 -15.01397 v -15.01397"
         style="fill:#f7400d;fill-opacity:1;stroke:#f5921d;stroke-width:1.49555099;stroke-linecap:round;stroke-linejoin:round;stroke-miterlimit:4;stroke-dasharray:none;stroke-opacity:1;paint-order:normal" />
      <path
         inkscape:connector-curvature="0"
         id="path3635"
         d="m 296.52582,-299.03838 -3.75349,-11.26048 2.81512,8.44535 2.81511,8.44536 -1.87674,-5.63023 q -1.87674,-5.63024 -5.63023,-9.38373 l -3.7535,-3.7535 1.87674,1.87675 1.87676,1.87675 8.91454,-8.91455 8.91454,-8.91454 -1.40756,-2.34593 -1.40756,-2.34593 2.81512,4.69186 q 2.81511,4.69186 6.56861,8.44536 l 3.75349,3.75349 -5.63023,-5.63024 -5.63025,-5.63024 7.50699,7.50699 q 7.50698,7.50698 15.01396,15.01396 l 7.50699,7.50699 -8.44536,8.44535 -8.44536,8.44535 1.87675,1.87676 1.87675,1.87674 -3.7535,-3.7535 q -3.75349,-3.75349 -9.38373,-5.63023 l -5.63023,-1.87674 8.44536,2.81511 8.44535,2.81512 -11.72966,-3.28431 -11.72966,-3.2843 0.46919,3.2843 0.46918,3.28431 -0.93837,-6.56861 q -0.93838,-6.56861 -2.81512,-12.19884 l -1.87674,-5.63024 2.81511,8.44535 2.81512,8.44536 -3.75349,-11.26047 m 43.16515,5.63023 -1.87674,-1.87674 -5.63024,-5.63024 -5.63024,-5.63024 3.75349,3.75349 q 3.7535,3.7535 7.50699,7.50699 l 3.75349,3.75348 -1.87675,-1.87674"
         style="fill:#fb0e03;fill-opacity:1;stroke:#f5921d;stroke-width:1.49555099;stroke-linecap:round;stroke-linejoin:round;stroke-miterlimit:4;stroke-dasharray:none;stroke-opacity:1;paint-order:normal" />
      <path
         inkscape:connector-curvature="0"
         id="path3637"
         d="m 330.30724,-302.79188 -7.50698,-7.50698 8.44535,-8.44535 8.44536,-8.44536 -1.87674,-1.87675 -1.87675,-1.87674 3.75349,3.75349 q 3.75349,3.75349 9.38373,5.63023 l 5.63023,1.87675 -8.44535,-2.81512 -8.44535,-2.81512 12.19884,2.81512 12.19885,2.81512 -1.87674,-1.87675 -1.87675,-1.87674 3.75349,3.75349 q 3.75349,3.75349 9.38373,5.63024 l 5.63023,1.87674 -8.44535,-2.81512 -8.44535,-2.81511 11.26047,3.75349 q 11.26047,3.75349 15.01396,15.01397 3.7535,11.26047 7.50699,22.52095 3.75349,11.26047 11.26047,18.76745 7.50699,7.50698 11.26048,18.76746 3.75348,11.26047 7.50698,22.52094 3.75349,11.26048 11.26047,18.76746 7.50698,7.50698 11.26048,18.76746 3.75349,11.26048 3.75349,26.27444 0,15.01396 -3.75349,26.27444 -3.7535,11.26047 -15.01397,15.01397 l -11.26048,3.75349 v -15.01397 q 0,-15.01397 0,-30.02793 0,-15.01396 -3.75348,-26.27444 -3.75349,-11.26048 -11.26048,-18.76746 -7.50698,-7.50698 -15.01396,-15.01397 -7.50699,-7.50697 -18.29828,-11.72965 l -10.79128,-4.22268 0.46919,3.2843 0.46918,3.28431 -0.93837,-6.56861 q -0.93837,-6.56862 -0.93837,-14.07559 v -7.50699 11.26048 11.26047 -15.01396 q 0,-15.01397 -3.75349,-26.27445 -3.7535,-11.26047 -11.26048,-18.76745 -7.50698,-7.50698 -15.01397,-15.01397 m -9.38373,-9.38373 1.87675,1.87675 5.63024,5.63024 5.63024,5.63024 -3.7535,-3.7535 q -3.75349,-3.75349 -7.50698,-7.50698 l -3.75349,-3.75349 1.87674,1.87674"
         style="fill:#f5921d;fill-opacity:1;stroke:#f5921d;stroke-width:1.49555099;stroke-linecap:round;stroke-linejoin:round;stroke-miterlimit:4;stroke-dasharray:none;stroke-opacity:1;paint-order:normal" />
      <path
         inkscape:connector-curvature="0"
         id="path3639"
         d="m 127.61871,-272.76395 q 0,-7.50698 7.50698,-7.50698 7.50698,0 7.50698,7.50698 0,7.50699 -7.50698,7.50699 -7.50698,0 -7.50698,-7.50699"
         style="fill:#fbae1d;fill-opacity:1;stroke:#f5921d;stroke-width:1.49555099;stroke-linecap:round;stroke-linejoin:round;stroke-miterlimit:4;stroke-dasharray:none;stroke-opacity:1;paint-order:normal" />
      <path
         inkscape:connector-curvature="0"
         id="path3641"
         d="m 243.97694,-269.01046 q 3.7535,-11.26047 15.01397,-15.01396 l 11.26047,-3.75349 v 15.01396 15.01397 h -15.01397 -15.01396 l 3.75349,-11.26048"
         style="fill:#f75c11;fill-opacity:1;stroke:#f5921d;stroke-width:1.49555099;stroke-linecap:round;stroke-linejoin:round;stroke-miterlimit:4;stroke-dasharray:none;stroke-opacity:1;paint-order:normal" />
      <path
         inkscape:connector-curvature="0"
         id="path3643"
         d="m 270.25138,-272.76395 v -15.01396 h 15.01397 15.01396 v 15.01396 15.01397 h -15.01396 -15.01397 v -15.01397"
         style="fill:#f64c10;fill-opacity:1;stroke:#f5921d;stroke-width:1.49555099;stroke-linecap:round;stroke-linejoin:round;stroke-miterlimit:4;stroke-dasharray:none;stroke-opacity:1;paint-order:normal" />
      <path
         inkscape:connector-curvature="0"
         id="path3645"
         d="m 300.27931,-272.76395 v -15.01396 11.26048 11.26047 -7.50699 q 0,-7.50698 -0.93837,-14.07559 l -0.93838,-6.56861 0.46919,3.28431 0.46919,3.2843 11.72966,3.2843 q 11.72966,3.28431 15.48315,14.54478 l 3.75349,11.26048 h -15.01396 -15.01397 v -15.01397 m 0,3.75349 v 11.26048 3.75349 3.75349 -7.50698 q 0,-7.50698 0,-15.01397 v -7.50698 11.26047"
         style="fill:#f82f0a;fill-opacity:1;stroke:#f5921d;stroke-width:1.49555099;stroke-linecap:round;stroke-linejoin:round;stroke-miterlimit:4;stroke-dasharray:none;stroke-opacity:1;paint-order:normal" />
      <path
         inkscape:connector-curvature="0"
         id="path3647"
         d="m 326.55375,-269.01046 -3.75349,-11.26047 2.81512,8.44536 2.81512,8.44535 -1.87675,-5.63024 q -1.87674,-5.63023 -5.63024,-9.38373 l -3.75349,-3.75349 1.87675,1.87675 1.87674,1.87674 8.44536,-8.44535 8.44536,-8.44535 7.50698,7.50698 q 7.50698,7.50698 11.26048,18.76745 l 3.75349,11.26048 -2.81512,-8.44535 -2.81513,-8.44536 1.87676,5.63023 q 1.87674,5.63024 2.81511,12.19885 l 0.93838,6.56861 -0.46919,-3.2843 -0.46919,-3.28431 -14.54478,-0.46918 -14.54478,-0.46919 -3.75349,-11.26048 m 16.89071,-20.6442 -5.63023,-5.63023 -1.87675,-1.87675 -1.87674,-1.87674 3.75349,3.75349 q 3.75349,3.75348 7.50698,7.50698 l 3.75349,3.75349 -5.63024,-5.63024"
         style="fill:#fc0501;fill-opacity:1;stroke:#f5921d;stroke-width:1.49555099;stroke-linecap:round;stroke-linejoin:round;stroke-miterlimit:4;stroke-dasharray:none;stroke-opacity:1;paint-order:normal" />
      <path
         inkscape:connector-curvature="0"
         id="path3649"
         d="m 427.89802,-272.76395 q 0,-7.50698 7.50698,-7.50698 7.50698,0 7.50698,7.50698 0,7.50699 -7.50698,7.50699 -7.50698,0 -7.50698,-7.50699"
         style="fill:#fbae1d;fill-opacity:1;stroke:#f5921d;stroke-width:1.49555099;stroke-linecap:round;stroke-linejoin:round;stroke-miterlimit:4;stroke-dasharray:none;stroke-opacity:1;paint-order:normal" />
      <path
         inkscape:connector-curvature="0"
         id="path3651"
         d="m 180.16758,-242.73601 q 7.50699,-7.50699 18.76746,-11.26048 l 11.26048,-3.75349 v 15.01397 15.01396 l -11.26048,3.75349 -11.26047,3.7535 8.44536,-2.81513 8.44535,-2.81512 -5.63024,1.87675 q -5.63023,1.87675 -9.38373,5.63024 l -3.75349,3.75349 1.87675,-1.87675 1.87674,-1.87674 -8.44535,-8.44536 q -8.44535,-8.44536 -0.93838,-15.95233"
         style="fill:#f5851a;fill-opacity:1;stroke:#f5921d;stroke-width:1.49555099;stroke-linecap:round;stroke-linejoin:round;stroke-miterlimit:4;stroke-dasharray:none;stroke-opacity:1;paint-order:normal" />
      <path
         inkscape:connector-curvature="0"
         id="path3653"
         d="m 210.19552,-242.73601 v -15.01397 l 15.48315,0.46919 15.48315,0.46918 0.46919,-3.2843 0.46918,-3.28431 -0.93837,6.56861 q -0.93837,6.56861 -0.93837,14.0756 v 7.50697 -11.26047 -11.26047 15.01397 15.01396 -11.26047 -11.26048 7.50699 q 0,7.50697 -0.93837,14.07559 l -0.93837,6.56861 0.46918,-3.28431 0.46919,-3.2843 -14.54478,0.46919 -14.54478,0.46918 v -15.01396 m 0,-18.76746 v 3.75349 11.26047 11.26047 -7.50697 q 0,-7.50699 0,-15.01397 v -7.50698 3.75349"
         style="fill:#fb1604;fill-opacity:1;stroke:#f5921d;stroke-width:1.49555099;stroke-linecap:round;stroke-linejoin:round;stroke-miterlimit:4;stroke-dasharray:none;stroke-opacity:1;paint-order:normal" />
      <path
         inkscape:connector-curvature="0"
         id="path3655"
         d="m 240.22345,-242.73601 v -15.01397 h 15.01396 15.01397 l -3.75349,11.26047 q -3.75349,11.26047 -15.01397,15.01397 l -11.26047,3.75349 v -15.01396"
         style="fill:#f64f10;fill-opacity:1;stroke:#f5921d;stroke-width:1.49555099;stroke-linecap:round;stroke-linejoin:round;stroke-miterlimit:4;stroke-dasharray:none;stroke-opacity:1;paint-order:normal" />
      <path
         inkscape:connector-curvature="0"
         id="path3657"
         d="m 266.49789,-246.48951 3.75349,-11.26047 h 15.01397 15.01396 l 0.46919,15.48315 0.46919,15.48315 3.2843,-0.46918 3.2843,-0.46919 -6.5686,0.93837 q -6.56861,0.93837 -12.19886,2.81512 l -5.63023,1.87675 8.44536,-2.81512 8.44535,-2.81512 -11.26048,3.75349 -11.26047,3.7535 8.44536,-2.81513 8.44536,-2.81512 -5.63025,1.87675 q -5.63023,1.87675 -9.38372,5.63024 l -3.75349,3.75349 1.87674,-1.87675 1.87675,-1.87674 -9.38373,-9.38373 -9.38373,-9.38373 -1.87674,1.87674 -1.87675,1.87676 3.75349,-3.7535 q 3.75349,-3.75349 5.63024,-9.38373 l 1.87675,-5.63023 -2.81513,8.44536 -2.81511,8.44534 3.75349,-11.26047"
         style="fill:#f55011;fill-opacity:1;stroke:#f5921d;stroke-width:1.49555099;stroke-linecap:round;stroke-linejoin:round;stroke-miterlimit:4;stroke-dasharray:none;stroke-opacity:1;paint-order:normal" />
      <path
         inkscape:connector-curvature="0"
         id="path3659"
         d="m 300.7485,-242.26683 -0.46919,-15.48315 h 15.01397 15.01396 v 15.01397 15.01396 h -15.01396 -15.01397 11.26047 11.26048 -7.50698 q -7.50699,0 -14.07559,0.93837 l -6.56861,0.93837 3.2843,-0.46918 3.28431,-0.46919 -0.46919,-15.48315 m 29.55874,18.29827 v -3.75349 -11.26047 -11.26048 7.50699 q 0,7.50697 0,15.01396 v 7.50699 -3.7535 m -30.02793,-37.53491 v 3.75349 11.26047 11.26047 -7.50697 q 0,-7.50699 0,-15.01397 v -7.50698 3.75349"
         style="fill:#f73e0d;fill-opacity:1;stroke:#f5921d;stroke-width:1.49555099;stroke-linecap:round;stroke-linejoin:round;stroke-miterlimit:4;stroke-dasharray:none;stroke-opacity:1;paint-order:normal" />
      <path
         inkscape:connector-curvature="0"
         id="path3661"
         d="m 330.30724,-242.73601 v -15.01397 l 14.54478,0.46919 14.54478,0.46918 -0.46919,-3.2843 -0.46918,-3.28431 0.93837,6.56861 q 0.93838,6.56861 0.93838,14.0756 v 7.50697 -11.26047 -11.26047 15.01397 15.01396 h -15.01397 -15.01397 v -15.01396"
         style="fill:#fa1905;fill-opacity:1;stroke:#f5921d;stroke-width:1.49555099;stroke-linecap:round;stroke-linejoin:round;stroke-miterlimit:4;stroke-dasharray:none;stroke-opacity:1;paint-order:normal" />
      <path
         inkscape:connector-curvature="0"
         id="path3663"
         d="m 183.92108,-208.95459 q 3.75349,-11.26047 15.01396,-15.01397 l 11.26048,-3.75349 v 15.01396 15.01397 15.01397 q 0,15.01397 0,30.02793 v 15.01396 15.01397 15.01397 l -14.54478,-0.46919 -14.54478,-0.46919 0.46919,3.28431 0.46919,3.28431 -0.93838,-6.56862 q -0.93838,-6.56861 -0.93838,-14.07559 v -7.50698 11.26047 11.26048 -15.01397 q 0,-15.01397 0,-30.02793 0,-15.01396 0,-30.02793 0,-15.01397 3.7535,-26.27444"
         style="fill:#fd0000;fill-opacity:1;stroke:#f5921d;stroke-width:1.49555099;stroke-linecap:round;stroke-linejoin:round;stroke-miterlimit:4;stroke-dasharray:none;stroke-opacity:1;paint-order:normal" />
      <path
         inkscape:connector-curvature="0"
         id="path3665"
         d="m 210.19552,-212.70809 v -15.01396 l 14.54478,-0.46918 14.54478,-0.46919 0.46918,-3.28431 0.46919,-3.28431 -0.93837,6.56862 q -0.93837,6.56861 -2.81512,12.19884 l -1.87675,5.63025 2.81512,-8.44536 2.81512,-8.44536 -3.75349,11.26047 q -3.7535,11.26048 -15.01397,15.01397 l -11.26047,3.75349 v -15.01397"
         style="fill:#f73f0c;fill-opacity:1;stroke:#f5921d;stroke-width:1.49555099;stroke-linecap:round;stroke-linejoin:round;stroke-miterlimit:4;stroke-dasharray:none;stroke-opacity:1;paint-order:normal" />
      <path
         inkscape:connector-curvature="0"
         id="path3667"
         d="m 236.46996,-216.46158 3.75349,-11.26047 11.26047,-3.75349 11.26048,-3.7535 -8.44536,2.81513 -8.44536,2.81512 5.63024,-1.87675 q 5.63024,-1.87674 9.38373,-5.63024 l 3.75349,-3.75349 -1.87674,1.87675 -1.87675,1.87674 9.38373,9.38373 9.38373,9.38373 1.87675,-1.87674 1.87674,-1.87675 -3.75349,3.75349 q -3.75349,3.75349 -5.63024,9.38373 l -1.87674,5.63023 2.81511,-8.44535 2.81512,-8.44535 -3.75349,11.26047 -3.75349,11.26047 -11.26047,3.75349 -11.26047,3.75349 8.44534,-2.81512 8.44536,-2.81511 -5.63023,1.87674 q -5.63024,1.87675 -9.38373,5.63024 l -3.7535,3.75349 1.87676,-1.87674 1.87674,-1.87675 -9.38373,-9.38373 -9.38373,-9.38373 -1.87674,1.87675 -1.87675,1.87674 3.75349,-3.75349 q 3.75349,-3.75348 5.63024,-9.38373 l 1.87675,-5.63023 -2.81512,8.44535 -2.81513,8.44536 3.7535,-11.26048"
         style="fill:#f64e10;fill-opacity:1;stroke:#f5921d;stroke-width:1.49555099;stroke-linecap:round;stroke-linejoin:round;stroke-miterlimit:4;stroke-dasharray:none;stroke-opacity:1;paint-order:normal" />
      <path
         inkscape:connector-curvature="0"
         id="path3669"
         d="m 274.00487,-208.95459 q 3.75349,-11.26047 15.01396,-15.01397 l 11.26048,-3.75349 -3.75349,11.26047 q -3.75349,11.26048 -15.01396,15.01397 l -11.26048,3.75349 3.75349,-11.26047"
         style="fill:#f37719;fill-opacity:1;stroke:#f5921d;stroke-width:1.49555099;stroke-linecap:round;stroke-linejoin:round;stroke-miterlimit:4;stroke-dasharray:none;stroke-opacity:1;paint-order:normal" />
      <path
         inkscape:connector-curvature="0"
         id="path3671"
         d="m 296.52582,-216.46158 3.75349,-11.26047 h 15.01397 15.01396 v 15.01396 15.01397 l -11.26047,3.75349 -11.26048,3.75349 8.44536,-2.81512 8.44536,-2.81511 -5.63024,1.87674 q -5.63023,1.87675 -9.38373,5.63024 l -3.75349,3.75349 1.87674,-1.87674 1.87675,-1.87675 -9.38373,-9.38373 -9.38372,-9.38373 -1.87676,1.87675 -1.87674,1.87674 3.7535,-3.75349 q 3.75349,-3.75348 5.63023,-9.38373 l 1.87674,-5.63023 -2.81511,8.44535 -2.81512,8.44536 3.75349,-11.26048 m 33.78142,0 v -11.26047 -3.75349 -3.7535 7.50699 q 0,7.50699 0,15.01396 v 7.50699 -11.26048"
         style="fill:#f57a18;fill-opacity:1;stroke:#f5921d;stroke-width:1.49555099;stroke-linecap:round;stroke-linejoin:round;stroke-miterlimit:4;stroke-dasharray:none;stroke-opacity:1;paint-order:normal" />
      <path
         inkscape:connector-curvature="0"
         id="path3673"
         d="m 330.30724,-212.70809 v -15.01396 h 15.01397 15.01397 l 3.75348,11.26047 3.7535,11.26048 -2.81512,-8.44536 -2.81512,-8.44535 1.87674,5.63023 q 1.87675,5.63025 4.69187,10.32211 l 2.81512,4.69186 -1.40756,-2.34593 -1.40756,-2.34593 -8.44535,8.44535 -8.44536,8.44536 2.34593,1.40756 2.34594,1.40756 -4.69187,-2.81512 q -4.69186,-2.81512 -10.3221,-4.69187 l -5.63024,-1.87674 8.44535,2.81511 8.44536,2.81512 -11.26047,-3.75349 -11.26048,-3.75349 v -15.01397"
         style="fill:#fa2007;fill-opacity:1;stroke:#f5921d;stroke-width:1.49555099;stroke-linecap:round;stroke-linejoin:round;stroke-miterlimit:4;stroke-dasharray:none;stroke-opacity:1;paint-order:normal" />
      <path
         inkscape:connector-curvature="0"
         id="path3675"
         d="m 364.08866,-216.46158 -3.75348,-11.26047 2.81511,8.44536 2.81512,8.44536 -1.87675,-5.63025 q -1.87674,-5.63023 -2.81511,-12.19884 l -0.93837,-6.56862 0.46933,3.28431 0.46934,3.28431 10.79128,4.22268 q 10.79099,4.22268 18.29798,11.72965 l 7.50698,7.50699 -7.50698,7.50698 -7.50699,7.50698 -7.50698,-7.50698 q -7.50698,-7.50698 -11.26048,-18.76746 m 13.13722,20.64421 5.63024,5.63023 1.87675,1.87675 1.87674,1.87675 -3.75349,-3.7535 q -3.75349,-3.75349 -7.50698,-7.50698 l -3.75349,-3.75349 5.63023,5.63024 m 22.52096,-7.50699 -1.87675,-1.87674 -5.63024,-5.63023 -5.63024,-5.63025 3.7535,3.75349 q 3.75349,3.7535 7.50698,7.50699 l 3.75349,3.75349 -1.87674,-1.87675"
         style="fill:#fc0501;fill-opacity:1;stroke:#f5921d;stroke-width:1.49555099;stroke-linecap:round;stroke-linejoin:round;stroke-miterlimit:4;stroke-dasharray:none;stroke-opacity:1;paint-order:normal" />
      <path
         inkscape:connector-curvature="0"
         id="path3677"
         d="m 210.19552,-182.68015 v -15.01397 l 11.26047,-3.75349 11.26047,-3.75349 -8.44535,2.81511 -8.44535,2.81513 5.63023,-1.87675 q 5.63024,-1.87675 9.38373,-5.63024 l 3.75349,-3.75348 -1.87675,1.87674 -1.87674,1.87674 9.38373,9.38373 9.38373,9.38373 1.87674,-1.87675 1.87675,-1.87674 -3.75349,3.75349 q -3.7535,3.75349 -5.63024,9.38373 l -1.87675,5.63024 2.81512,-8.44536 2.81513,-8.44536 -3.7535,11.26048 q -3.75349,11.26048 -3.75349,26.27444 v 15.01396 h -15.01396 -15.01397 v -15.01396 q 0,-15.01396 0,-30.02793"
         style="fill:#f7440f;fill-opacity:1;stroke:#f5921d;stroke-width:1.49555099;stroke-linecap:round;stroke-linejoin:round;stroke-miterlimit:4;stroke-dasharray:none;stroke-opacity:1;paint-order:normal" />
      <path
         inkscape:connector-curvature="0"
         id="path3679"
         d="m 243.97694,-178.92666 q 3.7535,-11.26048 15.01397,-15.01397 l 11.26047,-3.75349 v 15.01397 15.01397 l -14.54478,0.46918 -14.54478,0.46919 -0.46919,3.2843 -0.46918,3.2843 0.93837,-6.5686 q 0.93837,-6.56861 2.81512,-12.19885 l 1.87674,-5.63024 -2.81511,8.44536 -2.81512,8.44536 3.75349,-11.26048 m 15.01397,11.26048 h 11.26047 3.75349 3.75349 -7.50698 q -7.50698,0 -15.01397,0 h -7.50697 11.26047"
         style="fill:#f55713;fill-opacity:1;stroke:#f5921d;stroke-width:1.49555099;stroke-linecap:round;stroke-linejoin:round;stroke-miterlimit:4;stroke-dasharray:none;stroke-opacity:1;paint-order:normal" />
      <path
         inkscape:connector-curvature="0"
         id="path3681"
         d="m 270.25138,-182.68015 v -15.01397 l 11.26048,-3.75349 11.26047,-3.75349 -8.44536,2.81511 -8.44535,2.81513 5.63024,-1.87675 q 5.63023,-1.87675 9.38373,-5.63024 l 3.75349,-3.75348 -1.87675,1.87674 -1.87674,1.87674 9.38372,9.38373 9.38373,9.38373 1.87674,-1.87675 1.87676,-1.87674 -3.7535,3.75349 q -3.75349,3.75349 -5.63023,9.38373 l -1.87675,5.63024 2.81512,-8.44536 2.81511,-8.44536 -3.75348,11.26048 -3.7535,11.26048 h -15.01396 -15.01397 v -15.01397 m -3.75349,15.01397 h 3.75349 11.26048 11.26047 -7.50698 q -7.50699,0 -15.01397,0 h -7.50698 3.75349"
         style="fill:#f27b1f;fill-opacity:1;stroke:#f5921d;stroke-width:1.49555099;stroke-linecap:round;stroke-linejoin:round;stroke-miterlimit:4;stroke-dasharray:none;stroke-opacity:1;paint-order:normal" />
      <path
         inkscape:connector-curvature="0"
         id="path3683"
         d="m 304.03281,-178.92666 q 3.75348,-11.26048 15.01396,-15.01397 l 11.26047,-3.75349 v 15.01397 15.01397 h -15.01396 -15.01397 l 3.7535,-11.26048"
         style="fill:#f4891d;fill-opacity:1;stroke:#f5921d;stroke-width:1.49555099;stroke-linecap:round;stroke-linejoin:round;stroke-miterlimit:4;stroke-dasharray:none;stroke-opacity:1;paint-order:normal" />
      <path
         inkscape:connector-curvature="0"
         id="path3685"
         d="m 329.83806,-182.21096 0.46918,-15.48316 11.26048,3.75349 q 11.26047,3.75349 18.76746,11.26048 l 7.50698,7.50698 -8.44536,8.44536 -8.44535,8.44535 1.87674,1.87675 1.87674,1.87675 -3.75348,-3.7535 q -3.75349,-3.75349 -9.38373,-5.63023 l -5.63024,-1.87675 8.44535,2.81512 8.44536,2.81511 -11.26047,-3.75348 -11.26048,-3.75349 8.44536,2.81511 8.44536,2.81512 -5.63024,-1.87674 q -5.63024,-1.87675 -12.19885,-2.81512 l -6.56861,-0.93837 3.2843,0.46933 3.28431,0.46934 0.46934,-15.48315 m 39.8807,8.91424 -1.87675,-1.87675 -5.63024,-5.63024 -5.63023,-5.63023 3.75349,3.75349 q 3.75348,3.75349 7.50698,7.50698 l 3.75349,3.75349 -1.87674,-1.87674"
         style="fill:#f45916;fill-opacity:1;stroke:#f5921d;stroke-width:1.49555099;stroke-linecap:round;stroke-linejoin:round;stroke-miterlimit:4;stroke-dasharray:none;stroke-opacity:1;paint-order:normal" />
      <path
         inkscape:connector-curvature="0"
         id="path3687"
         d="m 360.33518,-182.68015 -7.50699,-7.50699 5.63024,5.63024 5.63023,5.63024 -3.75348,-3.75349 q -3.75349,-3.75349 -8.44536,-6.56861 l -4.69186,-2.81512 2.34592,1.40756 2.34594,1.40756 8.44536,-8.44536 8.44535,-8.44535 -1.40756,-2.34594 -1.40756,-2.34592 2.81512,4.69186 q 2.81512,4.69186 6.56861,8.44535 l 3.75349,3.75349 -5.63024,-5.63023 -5.63023,-5.63024 7.50698,7.50698 q 7.50698,7.50698 15.01397,15.01397 l 7.50698,7.50698 -5.63024,-5.63024 -5.63024,-5.63023 3.7535,3.75349 q 3.75349,3.75349 8.44535,6.56861 l 4.69187,2.81512 -2.34594,-1.40757 -2.34593,-1.40755 -8.44535,8.44536 -8.44536,8.44535 1.40741,2.34608 1.40741,2.34609 -2.81512,-4.69187 q -2.81482,-4.69216 -6.56831,-8.44565 l -3.75349,-3.7535 5.63023,5.63024 5.63024,5.63023 -7.50698,-7.50697 q -7.50698,-7.50699 -15.01396,-15.01397"
         style="fill:#fa1705;fill-opacity:1;stroke:#f5921d;stroke-width:1.49555099;stroke-linecap:round;stroke-linejoin:round;stroke-miterlimit:4;stroke-dasharray:none;stroke-opacity:1;paint-order:normal" />
      <path
         inkscape:connector-curvature="0"
         id="path3689"
         d="m 390.36311,-182.68015 -7.50699,-7.50699 7.50699,-7.50698 7.50698,-7.50698 7.50698,7.50698 q 7.50699,7.50698 11.26048,18.76746 l 3.75348,11.26048 -2.81511,-8.44536 -2.81512,-8.44536 1.87675,5.63024 q 1.87674,5.63024 2.81511,12.19885 l 0.93837,6.5686 -0.46918,-3.2843 -0.46919,-3.2843 -10.79128,-4.22268 q -10.79129,-4.22268 -18.29827,-11.72966 m 13.13722,-16.89071 -5.63024,-5.63024 -1.87675,-1.87675 -1.87674,-1.87674 3.75349,3.75349 q 3.75349,3.75349 7.50698,7.50698 l 3.75349,3.75349 -5.63023,-5.63023 m -22.52095,7.50698 1.87674,1.87674 5.63024,5.63024 5.63024,5.63024 -3.75349,-3.75349 q -3.7535,-3.75349 -7.50699,-7.50699 l -3.75349,-3.75349 1.87675,1.87675"
         style="fill:#fd0000;fill-opacity:1;stroke:#f5921d;stroke-width:1.49555099;stroke-linecap:round;stroke-linejoin:round;stroke-miterlimit:4;stroke-dasharray:none;stroke-opacity:1;paint-order:normal" />
      <path
         inkscape:connector-curvature="0"
         id="path3691"
         d="m 240.22345,-152.65222 v -15.01396 11.26047 11.26047 -7.50698 q 0,-7.50699 0.93837,-14.07559 l 0.93837,-6.56861 -0.46918,3.2843 -0.46919,3.28431 14.54478,-0.46919 14.54478,-0.46918 v 15.01396 15.01396 h -15.01397 -15.01396 v -15.01396 m 0,3.75349 v 11.26047 3.7535 3.75349 -7.50699 q 0,-7.50698 0,-15.01396 v -7.50699 11.26048"
         style="fill:#f88e18;fill-opacity:1;stroke:#f5921d;stroke-width:1.49555099;stroke-linecap:round;stroke-linejoin:round;stroke-miterlimit:4;stroke-dasharray:none;stroke-opacity:1;paint-order:normal" />
      <path
         inkscape:connector-curvature="0"
         id="path3693"
         d="m 270.25138,-152.65222 v -15.01396 h 15.01397 15.01396 l -0.46918,15.48314 -0.46919,15.48315 3.2843,0.46919 3.28431,0.46919 -6.56861,-0.93838 q -6.56861,-0.93837 -14.07559,-0.93837 h -7.50699 11.26047 11.26048 -15.01396 -15.01397 v -15.01396 m 33.78143,-15.01396 h -3.7535 -11.26048 -11.26047 7.50699 q 7.50698,0 15.01396,0 h 7.50698 -3.75348"
         style="fill:#f5921d;fill-opacity:1;stroke:#f5921d;stroke-width:1.49555099;stroke-linecap:round;stroke-linejoin:round;stroke-miterlimit:4;stroke-dasharray:none;stroke-opacity:1;paint-order:normal" />
      <path
         inkscape:connector-curvature="0"
         id="path3695"
         d="m 299.81013,-152.18304 0.46918,-15.48314 h 15.01397 15.01396 l 3.7535,11.26047 3.75349,11.26047 -2.81512,-8.44535 -2.81512,-8.44536 1.87675,5.63024 q 1.87674,5.63023 5.63023,9.38372 l 3.75349,3.7535 -1.87674,-1.87675 -1.87675,-1.87675 -9.38373,9.38373 -9.38373,9.38373 1.87675,1.87675 1.87675,1.87674 -3.7535,-3.75349 q -3.75349,-3.75349 -9.38373,-5.63023 l -5.63023,-1.87675 8.44536,2.81512 8.44535,2.81512 -11.26048,-3.75349 -11.26047,-3.7535 8.44536,2.81513 8.44535,2.81511 -5.63024,-1.87674 q -5.63023,-1.87675 -12.19884,-2.81513 l -6.56861,-0.93837 3.28431,0.46934 3.2843,0.46934 0.46919,-15.48316"
         style="fill:#f2791f;fill-opacity:1;stroke:#f5921d;stroke-width:1.49555099;stroke-linecap:round;stroke-linejoin:round;stroke-miterlimit:4;stroke-dasharray:none;stroke-opacity:1;paint-order:normal" />
      <path
         inkscape:connector-curvature="0"
         id="path3697"
         d="m 334.06074,-156.40571 -3.7535,-11.26047 11.26048,3.75349 q 11.26047,3.75348 15.01397,15.01396 l 3.75349,11.26047 -11.26048,-3.75349 q -11.26047,-3.75349 -15.01396,-15.01396"
         style="fill:#f47018;fill-opacity:1;stroke:#f5921d;stroke-width:1.49555099;stroke-linecap:round;stroke-linejoin:round;stroke-miterlimit:4;stroke-dasharray:none;stroke-opacity:1;paint-order:normal" />
      <path
         inkscape:connector-curvature="0"
         id="path3699"
         d="m 356.58169,-148.89873 -3.7535,-11.26048 2.81512,8.44536 2.81512,8.44536 -1.87674,-5.63024 q -1.87676,-5.63023 -5.63024,-9.38373 l -3.75349,-3.75349 1.87674,1.87674 1.87675,1.87675 8.44535,-8.44535 8.44536,-8.44536 7.50698,7.50699 q 7.50698,7.50697 11.26047,18.76745 l 3.7535,11.26047 h -15.01397 -15.01396 l -3.75349,-11.26047 m 16.8907,-20.64421 -5.63023,-5.63023 -1.87675,-1.87674 -1.87675,-1.87675 3.7535,3.75349 q 3.75349,3.75349 7.50698,7.50699 l 3.75349,3.75349 -5.63024,-5.63025"
         style="fill:#f45616;fill-opacity:1;stroke:#f5921d;stroke-width:1.49555099;stroke-linecap:round;stroke-linejoin:round;stroke-miterlimit:4;stroke-dasharray:none;stroke-opacity:1;paint-order:normal" />
      <path
         inkscape:connector-curvature="0"
         id="path3701"
         d="m 386.60961,-148.89873 -3.75349,-11.26048 2.81512,8.44536 2.81512,8.44536 -1.87675,-5.63024 q -1.87674,-5.63023 -4.69186,-10.3221 l -2.81512,-4.69186 1.40741,2.34608 1.40741,2.34608 8.44566,-8.44565 8.44535,-8.44536 -2.34593,-1.40756 -2.34593,-1.40756 4.69186,2.81512 q 4.69187,2.81512 10.3221,4.69186 l 5.63024,1.87674 -8.44536,-2.81511 -8.44535,-2.81512 10.79129,4.22268 10.79128,4.22268 -0.46918,-3.28431 -0.46919,-3.2843 0.93837,6.56861 q 0.93837,6.5686 0.93837,14.07559 v 7.50698 -11.26047 -11.26047 15.01396 15.01396 l -15.48315,0.46934 -15.48314,0.46934 0.46933,3.2843 0.46904,3.28401 -0.93837,-6.56862 q -0.93838,-6.5686 -2.81513,-12.19884 l -1.87674,-5.63023 2.81511,8.44535 2.81513,8.44535 -3.7535,-11.26047 m 33.78142,15.01397 v -3.7535 -11.26047 -11.26048 7.50699 q 0,7.50698 0,15.01396 v 7.50699 -3.75349"
         style="fill:#fb0e03;fill-opacity:1;stroke:#f5921d;stroke-width:1.49555099;stroke-linecap:round;stroke-linejoin:round;stroke-miterlimit:4;stroke-dasharray:none;stroke-opacity:1;paint-order:normal" />
      <path
         inkscape:connector-curvature="0"
         id="path3703"
         d="m 210.19552,-122.62429 v -15.01397 h 15.01397 15.01396 v 15.01397 15.01397 h -15.01396 -15.01397 v -15.01397"
         style="fill:#f73f0d;fill-opacity:1;stroke:#f5921d;stroke-width:1.49555099;stroke-linecap:round;stroke-linejoin:round;stroke-miterlimit:4;stroke-dasharray:none;stroke-opacity:1;paint-order:normal" />
      <path
         inkscape:connector-curvature="0"
         id="path3705"
         d="m 240.22345,-122.62429 v -15.01397 h 15.01396 15.01397 v 15.01397 15.01397 -11.26048 -11.26047 7.50698 q 0,7.50698 0.93838,14.07559 l 0.93837,6.56862 -0.46919,-3.28431 -0.46918,-3.28431 -15.48316,0.46919 -15.48315,0.46919 v -15.01397 m 33.78142,-15.01397 h -3.75349 -11.26047 -11.26047 7.50697 q 7.50699,0 15.01397,0 h 7.50698 -3.75349 m -33.78142,-3.75349 v 3.75349 11.26048 11.26047 -7.50698 q 0,-7.50698 0,-15.01397 v -7.50698 3.75349"
         style="fill:#f77d17;fill-opacity:1;stroke:#f5921d;stroke-width:1.49555099;stroke-linecap:round;stroke-linejoin:round;stroke-miterlimit:4;stroke-dasharray:none;stroke-opacity:1;paint-order:normal" />
      <path
         inkscape:connector-curvature="0"
         id="path3707"
         d="m 270.25138,-122.62429 v -15.01397 h 15.01397 q 15.01396,0 26.27443,3.7535 11.26048,3.75349 15.01397,15.01396 l 3.75349,11.26048 -3.75349,11.260469 q -3.75349,11.260474 -15.01397,15.013963 l -11.26047,3.753497 v -15.013971 q 0,-15.013958 -15.01396,-15.013958 h -15.01397 v -15.01397 m 11.26048,-15.01397 h -11.26048 -3.75349 -3.75349 7.50698 q 7.50698,0 15.01397,0 h 7.50698 -11.26047"
         style="fill:#fbae1d;fill-opacity:1;stroke:#f5921d;stroke-width:1.49555099;stroke-linecap:round;stroke-linejoin:round;stroke-miterlimit:4;stroke-dasharray:none;stroke-opacity:1;paint-order:normal" />
      <path
         inkscape:connector-curvature="0"
         id="path3709"
         d="m 326.55375,-118.8708 -3.75349,-11.26047 2.81512,8.44535 2.81512,8.44536 -1.87675,-5.63024 q -1.87674,-5.63024 -5.63024,-9.38373 l -3.75349,-3.75349 1.87675,1.87675 1.87674,1.87674 9.38373,-9.38373 9.38373,-9.38373 -1.87674,-1.87674 -1.87675,-1.87675 3.75349,3.75349 q 3.75349,3.7535 9.38373,5.63024 l 5.63023,1.87675 -8.44535,-2.81512 -8.44535,-2.81512 11.26047,3.75349 11.26048,3.75349 3.75348,11.26048 3.7535,11.26047 -2.81512,-8.44535 -2.81512,-8.44536 1.87674,5.63024 q 1.87675,5.63024 5.63025,9.38373 l 3.75348,3.75349 -1.87674,-1.87675 -1.87674,-1.87674 -9.38373,9.38373 -9.38373,9.383725 1.87674,1.876744 1.87674,1.876745 -3.75348,-3.753489 q -3.75349,-3.753485 -9.38373,-5.630245 l -5.63024,-1.87674 8.44535,2.81512 8.44536,2.81512 -11.26047,-3.7535 -11.26048,-3.75348 -3.75349,-11.26048"
         style="fill:#f3731a;fill-opacity:1;stroke:#f5921d;stroke-width:1.49555099;stroke-linecap:round;stroke-linejoin:round;stroke-miterlimit:4;stroke-dasharray:none;stroke-opacity:1;paint-order:normal" />
      <path
         inkscape:connector-curvature="0"
         id="path3711"
         d="m 364.08866,-126.37778 -3.75348,-11.26048 h 15.01396 15.01397 l 0.46933,14.54478 0.46934,14.54478 3.2843,0.46934 3.28401,0.46904 -6.56861,-0.93838 q -6.56861,-0.93837 -12.19885,-2.81511 l -5.63024,-1.87675 8.44536,2.81512 8.44536,2.81512 -11.26048,-3.75349 q -11.26047,-3.7535 -15.01397,-15.01397"
         style="fill:#f55d14;fill-opacity:1;stroke:#f5921d;stroke-width:1.49555099;stroke-linecap:round;stroke-linejoin:round;stroke-miterlimit:4;stroke-dasharray:none;stroke-opacity:1;paint-order:normal" />
      <path
         inkscape:connector-curvature="0"
         id="path3713"
         d="m 390.83229,-123.09348 -0.46918,-14.54478 v 11.26048 11.26047 -7.50698 q 0,-7.50698 -0.93837,-14.0756 l -0.93838,-6.5686 0.46934,3.28431 0.46933,3.28429 15.48315,-0.46933 15.48285,-0.46904 v 15.01397 15.01397 h -15.01396 -15.01396 11.26047 11.26048 -7.50699 q -7.50698,0 -14.07559,-0.93838 l -6.56861,-0.93837 3.2843,0.46933 3.28431,0.46934 -0.46934,-14.54478 m 29.55889,-3.2846 v -11.26048 -3.75349 -3.75349 7.50698 q 0,7.50699 0,15.01397 v 7.50698 -11.26047"
         style="fill:#f92207;fill-opacity:1;stroke:#f5921d;stroke-width:1.49555099;stroke-linecap:round;stroke-linejoin:round;stroke-miterlimit:4;stroke-dasharray:none;stroke-opacity:1;paint-order:normal" />
      <path
         inkscape:connector-curvature="0"
         id="path3719"
         d="m 183.92108,-96.349851 -3.7535,-11.260469 2.81513,8.445353 2.81511,8.445357 -1.87674,-5.630241 q -1.87674,-5.630229 -2.81512,-12.198849 l -0.93838,-6.56861 0.46919,3.28431 0.46919,3.2843 14.54478,0.46919 14.54478,0.46919 v 15.013958 15.013971 l -11.26048,-3.753497 q -11.26047,-3.753489 -15.01396,-15.013963 m 26.27444,22.520948 v -3.753488 -11.260474 -11.260475 7.506978 q 0,7.506985 0,15.013971 v 7.506977 -3.753489"
         style="fill:#f85a11;fill-opacity:1;stroke:#f5921d;stroke-width:1.49555099;stroke-linecap:round;stroke-linejoin:round;stroke-miterlimit:4;stroke-dasharray:none;stroke-opacity:1;paint-order:normal" />
      <path
         inkscape:connector-curvature="0"
         id="path3721"
         d="m 210.19552,-92.596362 v -15.013958 h 15.01397 15.01396 v 15.013958 15.013971 h -15.01396 -15.01397 v -15.013971"
         style="fill:#f92307;fill-opacity:1;stroke:#f5921d;stroke-width:1.49555099;stroke-linecap:round;stroke-linejoin:round;stroke-miterlimit:4;stroke-dasharray:none;stroke-opacity:1;paint-order:normal" />
      <path
         inkscape:connector-curvature="0"
         id="path3723"
         d="m 240.22345,-92.596362 v -15.013958 l 15.48315,-0.46919 15.48316,-0.46919 -0.46919,-3.2843 -0.46919,-3.28431 0.93838,6.56861 q 0.93837,6.56862 2.81511,12.198849 l 1.87675,5.630241 -2.81512,-8.445357 -2.81512,-8.445353 3.75349,11.260469 3.75349,11.260474 -2.81512,-8.445357 -2.81511,-8.445346 1.87674,5.630229 q 1.87675,5.630241 5.63024,9.38373 l 3.75349,3.753489 -1.87674,-1.876745 -1.87675,-1.876744 -9.38373,9.38373 -9.38373,9.383729 1.87675,1.876745 1.87674,1.876744 -3.75349,-3.753489 q -3.75349,-3.753496 -9.38373,-5.630241 l -5.63024,-1.876744 8.44536,2.815116 8.44536,2.815117 -11.26048,-3.753489 -11.26047,-3.753488 v -15.013971 m 0,3.753497 v 11.260474 3.753488 3.753489 -7.506977 q 0,-7.506986 0,-15.013971 v -7.506978 11.260475"
         style="fill:#f76213;fill-opacity:1;stroke:#f5921d;stroke-width:1.49555099;stroke-linecap:round;stroke-linejoin:round;stroke-miterlimit:4;stroke-dasharray:none;stroke-opacity:1;paint-order:normal" />
      <path
         inkscape:connector-curvature="0"
         id="path3725"
         d="m 274.00487,-96.349851 -3.75349,-11.260469 h 15.01397 q 15.01396,0 15.01396,15.013958 v 15.013971 l -11.26048,-3.753497 q -11.26047,-3.753489 -15.01396,-15.013963"
         style="fill:#faab1d;fill-opacity:1;stroke:#f5921d;stroke-width:1.49555099;stroke-linecap:round;stroke-linejoin:round;stroke-miterlimit:4;stroke-dasharray:none;stroke-opacity:1;paint-order:normal" />
      <path
         inkscape:connector-curvature="0"
         id="path3727"
         d="m 326.55375,-96.349851 3.75349,-11.260469 11.26048,3.75348 q 11.26047,3.7535 15.01397,15.013975 l 3.75349,11.260474 -11.26048,3.753488 -11.26047,3.753489 8.44535,-2.815117 8.44535,-2.815116 -5.63023,1.876744 q -5.63024,1.876745 -9.38373,5.630241 l -3.75349,3.753489 1.87675,-1.876744 1.87674,-1.876745 -9.38373,-9.383729 -9.38373,-9.38373 -1.87674,1.876744 -1.87675,1.876745 3.75349,-3.753489 q 3.7535,-3.753489 5.63024,-9.38373 l 1.87675,-5.630229 -2.81512,8.445346 -2.81512,8.445357 3.75349,-11.260474"
         style="fill:#f77015;fill-opacity:1;stroke:#f5921d;stroke-width:1.49555099;stroke-linecap:round;stroke-linejoin:round;stroke-miterlimit:4;stroke-dasharray:none;stroke-opacity:1;paint-order:normal" />
      <path
         inkscape:connector-curvature="0"
         id="path3729"
         d="m 356.58169,-88.842865 -3.7535,-11.260475 2.81512,8.44535 2.81512,8.445358 -1.87674,-5.630233 q -1.87676,-5.630241 -5.63024,-9.38373 l -3.75349,-3.753485 1.87674,1.87674 1.87675,1.876745 9.38373,-9.383725 9.38373,-9.38373 -1.87675,-1.87675 -1.87675,-1.87674 3.7535,3.75349 q 3.75348,3.75349 9.38372,5.63024 l 5.63024,1.87674 -8.44536,-2.81512 -8.44535,-2.81512 11.26047,3.7535 11.26048,3.75349 -3.7535,11.260469 q -3.75349,11.260474 -15.01396,15.013963 l -11.26047,3.753497 -3.75349,-11.260474"
         style="fill:#f3751a;fill-opacity:1;stroke:#f5921d;stroke-width:1.49555099;stroke-linecap:round;stroke-linejoin:round;stroke-miterlimit:4;stroke-dasharray:none;stroke-opacity:1;paint-order:normal" />
      <path
         inkscape:connector-curvature="0"
         id="path3731"
         d="m 386.60961,-96.349851 3.7535,-11.260469 h 15.01396 15.01396 v 15.013958 15.013971 l -11.26047,3.753488 -11.26047,3.753489 8.44535,-2.815117 8.44536,-2.815116 -5.63024,1.876744 q -5.63023,1.876745 -9.38372,5.630241 l -3.7535,3.753489 1.87675,-1.876744 1.87675,-1.876745 -9.38373,-9.383729 -9.38373,-9.38373 -1.87675,1.876744 -1.87675,1.876745 3.7535,-3.753489 q 3.75349,-3.753489 5.63023,-9.38373 l 1.87675,-5.630229 -2.81512,8.445346 -2.81512,8.445357 3.75349,-11.260474 m 33.78142,22.520948 v -3.753488 -11.260474 -11.260475 7.506978 q 0,7.506985 0,15.013971 v 7.506977 -3.753489"
         style="fill:#f5811a;fill-opacity:1;stroke:#f5921d;stroke-width:1.49555099;stroke-linecap:round;stroke-linejoin:round;stroke-miterlimit:4;stroke-dasharray:none;stroke-opacity:1;paint-order:normal" />
      <path
         inkscape:connector-curvature="0"
         id="path3743"
         d="m 180.16758,-62.568429 -7.50697,-7.506985 5.63023,5.630241 5.63024,5.630233 -3.7535,-3.753489 q -3.75349,-3.753488 -8.44535,-6.568605 l -4.69186,-2.815124 2.34593,1.407562 2.34593,1.407562 8.91454,-8.914548 8.91454,-8.914539 -1.87674,-1.876744 -1.87675,-1.876745 3.75349,3.753489 q 3.7535,3.753489 9.38373,5.630233 l 5.63024,1.876752 -8.44535,-2.815124 -8.44536,-2.815117 11.26047,3.753489 11.26048,3.753497 v 15.013962 15.013971 l -11.26048,-3.753497 q -11.26047,-3.753488 -18.76746,-11.260474 m 30.02794,-3.753488 v -11.260474 -3.753497 -3.753489 7.506986 q 0,7.506977 0,15.013962 v 7.506986 -11.260474"
         style="fill:#f4911c;fill-opacity:1;stroke:#f5921d;stroke-width:1.49555099;stroke-linecap:round;stroke-linejoin:round;stroke-miterlimit:4;stroke-dasharray:none;stroke-opacity:1;paint-order:normal" />
      <path
         inkscape:connector-curvature="0"
         id="path3745"
         d="m 210.19552,-62.568429 v -15.013962 h 15.01397 15.01396 v 15.013962 15.013971 h -15.01396 -15.01397 v -15.013971"
         style="fill:#fa1905;fill-opacity:1;stroke:#f5921d;stroke-width:1.49555099;stroke-linecap:round;stroke-linejoin:round;stroke-miterlimit:4;stroke-dasharray:none;stroke-opacity:1;paint-order:normal" />
      <path
         inkscape:connector-curvature="0"
         id="path3747"
         d="m 240.22345,-62.568429 v -15.013962 l 11.26047,3.753488 q 11.26048,3.753489 15.01397,15.013963 l 3.75349,11.260482 h -15.01397 -15.01396 v -15.013971 m 18.76746,15.013971 h 11.26047 3.75349 3.75349 -7.50698 q -7.50698,0 -15.01397,0 h -7.50697 11.26047 m -18.76746,-33.78143 v 3.753497 11.260474 11.260474 -7.506986 q 0,-7.506985 0,-15.013962 v -7.506986 3.753489"
         style="fill:#f7420d;fill-opacity:1;stroke:#f5921d;stroke-width:1.49555099;stroke-linecap:round;stroke-linejoin:round;stroke-miterlimit:4;stroke-dasharray:none;stroke-opacity:1;paint-order:normal" />
      <path
         inkscape:connector-curvature="0"
         id="path3749"
         d="m 266.49789,-58.81494 -3.75349,-11.260474 2.81511,8.445357 2.81513,8.445358 -1.87675,-5.630241 q -1.87675,-5.630233 -5.63024,-9.383722 l -3.75349,-3.753496 1.87675,1.876744 1.87674,1.876752 9.38373,-9.383729 9.38373,-9.38373 -1.87675,-1.876744 -1.87674,-1.876745 3.75349,3.753489 q 3.75349,3.753489 9.38372,5.630233 l 5.63025,1.876752 -8.44536,-2.815124 -8.44536,-2.815117 11.26047,3.753489 11.26048,3.753497 v 15.013962 15.013971 h -15.01396 -15.01397 l -3.75349,-11.260482 m 0,11.260482 h 3.75349 11.26048 11.26047 -7.50698 q -7.50699,0 -15.01397,0 h -7.50698 3.75349"
         style="fill:#f76913;fill-opacity:1;stroke:#f5921d;stroke-width:1.49555099;stroke-linecap:round;stroke-linejoin:round;stroke-miterlimit:4;stroke-dasharray:none;stroke-opacity:1;paint-order:normal" />
      <path
         inkscape:connector-curvature="0"
         id="path3751"
         d="m 300.27931,-62.568429 v -15.013962 l 11.26047,-3.753497 11.26048,-3.753489 -8.44535,2.815117 -8.44536,2.815124 5.63023,-1.876752 q 5.63024,-1.876744 9.38373,-5.630233 l 3.7535,-3.753489 -1.87675,1.876745 -1.87675,1.876744 9.38373,9.38373 9.38373,9.383729 1.87675,-1.876752 1.87674,-1.876744 -3.75349,3.753496 q -3.75349,3.753489 -5.63023,9.383722 l -1.87675,5.630241 2.81512,-8.445358 2.81512,-8.445357 -3.75349,11.260474 -3.7535,11.260482 h -15.01396 -15.01397 v -15.013971"
         style="fill:#f76413;fill-opacity:1;stroke:#f5921d;stroke-width:1.49555099;stroke-linecap:round;stroke-linejoin:round;stroke-miterlimit:4;stroke-dasharray:none;stroke-opacity:1;paint-order:normal" />
      <path
         inkscape:connector-curvature="0"
         id="path3753"
         d="m 334.06074,-58.81494 q 3.75349,-11.260474 15.01396,-15.013963 l 11.26048,-3.753488 -3.75349,11.260474 q -3.7535,11.260474 -15.01397,15.013962 l -11.26048,3.753497 3.7535,-11.260482"
         style="fill:#f66a15;fill-opacity:1;stroke:#f5921d;stroke-width:1.49555099;stroke-linecap:round;stroke-linejoin:round;stroke-miterlimit:4;stroke-dasharray:none;stroke-opacity:1;paint-order:normal" />
      <path
         inkscape:connector-curvature="0"
         id="path3755"
         d="m 356.58169,-66.321917 3.75349,-11.260474 11.26047,-3.753497 11.26047,-3.753489 -8.44535,2.815117 -8.44536,2.815124 5.63024,-1.876752 q 5.63023,-1.876744 9.38373,-5.630233 l 3.75349,-3.753489 -1.87675,1.876745 -1.87674,1.876744 9.38373,9.38373 9.38373,9.383729 1.87674,-1.876752 1.87675,-1.876744 -3.75349,3.753496 q -3.7535,3.753489 -5.63024,9.383722 l -1.87675,5.630241 2.81512,-8.445358 2.81512,-8.445357 -3.75349,11.260474 -3.75349,11.260482 -11.26048,3.753489 -11.26047,3.753488 8.44535,-2.815116 8.44536,-2.815117 -5.63024,1.876745 q -5.63024,1.876744 -9.38372,5.630232 l -3.7535,3.753497 1.87675,-1.876744 1.87675,-1.876753 -9.38373,-9.383721 -9.38373,-9.38373 -1.87675,1.876745 -1.87674,1.876744 3.75349,-3.753489 q 3.75348,-3.753497 5.63024,-9.383729 l 1.87674,-5.630241 -2.81512,8.445357 -2.81512,8.445358 3.7535,-11.260474"
         style="fill:#f57718;fill-opacity:1;stroke:#f5921d;stroke-width:1.49555099;stroke-linecap:round;stroke-linejoin:round;stroke-miterlimit:4;stroke-dasharray:none;stroke-opacity:1;paint-order:normal" />
      <path
         sodipodi:nodetypes="cscssccccccccc"
         inkscape:connector-curvature="0"
         id="path3757"
         d="m 394.1166,-58.81494 c 2.50223,-7.506977 7.50698,-12.511643 15.01396,-15.013963 l 11.26047,-3.753488 v 15.013962 c 0,10.009306 -5.00466,15.013971 -15.01396,15.013971 h -15.01396 l 3.75349,-11.260482 m 26.27443,-7.506977 v -11.260474 -3.753497 -3.753489 7.506986 15.013962 c 0,12.275572 0,3.585337 0,-3.753488"
         style="fill:#f5921d;fill-opacity:0.95686275;stroke:#f5921d;stroke-width:1.49555099;stroke-linecap:round;stroke-linejoin:round;stroke-miterlimit:4;stroke-dasharray:none;stroke-opacity:1;paint-order:normal" />
      <path
         inkscape:connector-curvature="0"
         id="path3781"
         d="m 213.94901,-36.293984 -3.75349,-11.260474 h 15.01397 15.01396 l 0.46918,14.544772 0.46919,14.544783 3.28431,0.469186 3.28431,0.469187 -6.56862,-0.938373 q -6.56861,-0.938373 -12.19884,-2.815118 l -5.63024,-1.876745 8.44535,2.815117 8.44536,2.815119 -11.26047,-3.753491 Q 217.7025,-25.03351 213.94901,-36.293984"
         style="fill:#c98a1a;fill-opacity:1;stroke:#f5921d;stroke-width:1.49555099;stroke-linecap:round;stroke-linejoin:round;stroke-miterlimit:4;stroke-dasharray:none;stroke-opacity:1;paint-order:normal" />
      <path
         inkscape:connector-curvature="0"
         id="path3783"
         d="m 240.69263,-33.009686 -0.46918,-14.544772 h 15.01396 15.01397 v 15.013963 15.013965 h -15.01397 -15.01396 11.26047 11.26048 -7.50699 q -7.50697,0 -14.07559,-0.938373 l -6.56861,-0.938373 3.28431,0.469186 3.2843,0.469187 -0.46919,-14.544783"
         style="fill:#e41505;fill-opacity:1;stroke:#f5921d;stroke-width:1.49555099;stroke-linecap:round;stroke-linejoin:round;stroke-miterlimit:4;stroke-dasharray:none;stroke-opacity:1;paint-order:normal" />
      <path
         inkscape:connector-curvature="0"
         id="path3785"
         d="m 270.25138,-32.540495 v -15.013963 h 15.01397 15.01396 v 15.013963 15.013965 h -15.01396 -15.01397 v -15.013965 m 33.78143,-15.013963 h -3.7535 -11.26048 -11.26047 7.50699 q 7.50698,0 15.01396,0 h 7.50698 -3.75348"
         style="fill:#ec1b06;fill-opacity:1;stroke:#f5921d;stroke-width:1.49555099;stroke-linecap:round;stroke-linejoin:round;stroke-miterlimit:4;stroke-dasharray:none;stroke-opacity:1;paint-order:normal" />
      <path
         inkscape:connector-curvature="0"
         id="path3787"
         d="m 300.27931,-32.540495 v -15.013963 h 15.01397 15.01396 -11.26047 -11.26048 7.50699 q 7.50698,0 14.07559,-0.93838 l 6.56861,-0.938373 -3.2843,0.469341 -3.28431,0.469333 0.46934,15.483152 0.46903,15.482855 h -15.01396 -15.01397 v -15.013965 m 11.26047,-15.013963 h -11.26047 -3.75349 -3.75349 7.50698 q 7.50698,0 15.01397,0 h 7.50698 -11.26048"
         style="fill:#ef2f0a;fill-opacity:1;stroke:#f5921d;stroke-width:1.49555099;stroke-linecap:round;stroke-linejoin:round;stroke-miterlimit:4;stroke-dasharray:none;stroke-opacity:1;paint-order:normal" />
      <path
         inkscape:connector-curvature="0"
         id="path3789"
         d="m 330.30724,-32.540495 v -15.013963 l 11.26048,-3.753497 11.26047,-3.753488 -8.44536,2.815116 -8.44535,2.815116 5.63024,-1.876744 q 5.63024,-1.876744 9.38373,-5.630233 l 3.75348,-3.753497 -1.87674,1.876745 -1.87674,1.876752 9.38373,9.38373 9.38373,9.383721 1.87674,-1.876744 1.87674,-1.876744 -3.75348,3.753488 q -3.7535,3.753497 -5.63025,9.38373 l -1.87674,5.630241 2.81512,-8.445357 2.81512,-8.445358 -3.7535,11.260474 -3.75348,11.260477 h -15.01397 -15.01397 v -15.013965 m 18.76746,15.013965 h 11.26048 3.75348 3.7535 -7.50698 q -7.50699,0 -15.01397,0 h -7.50698 11.26047"
         style="fill:#e76714;fill-opacity:1;stroke:#f5921d;stroke-width:1.49555099;stroke-linecap:round;stroke-linejoin:round;stroke-miterlimit:4;stroke-dasharray:none;stroke-opacity:1;paint-order:normal" />
      <path
         sodipodi:nodetypes="csccccccccccccccccccc"
         inkscape:connector-curvature="0"
         id="path3791"
         d="m 364.08866,-28.787007 c 2.50223,-7.506977 7.50699,-12.511642 15.01397,-15.013962 l 11.26048,-3.753489 v 15.013963 15.013965 h -15.01397 -15.01396 l 3.75348,-11.260477 m -7.50697,11.260477 h 3.75349 11.26047 11.26047 -7.50698 -15.01396 -7.50699 3.7535 m 33.78142,0 v -11.260477 -11.260474 7.506986 15.013965"
         style="fill:#dd8e18;fill-opacity:0.91764706;stroke:#f5921d;stroke-width:1.49555099;stroke-linecap:round;stroke-linejoin:round;stroke-miterlimit:4;stroke-dasharray:none;stroke-opacity:1;paint-order:normal" />
      <path
         inkscape:connector-curvature="0"
         id="path3823"
         d="M 274.00487,-6.2660564 270.25138,-17.52653 h 15.01397 15.01396 V -3.4509384 10.624654 h 2.81512 2.81512 -5.63024 q -5.63023,0 -11.26048,-1.8767448 l -5.63023,-1.876746 8.44536,2.8151181 8.44535,2.8151187 -11.26048,-3.7534908 Q 277.75836,4.9944173 274.00487,-6.2660564 m 7.50699,-11.2604736 h -11.26048 -3.75349 -3.75349 7.50698 q 7.50698,0 15.01397,0 h 7.50698 -11.26047"
         style="fill:#ef2f0a;fill-opacity:1;stroke:#f5921d;stroke-width:1.49555099;stroke-linecap:round;stroke-linejoin:round;stroke-miterlimit:4;stroke-dasharray:none;stroke-opacity:1;paint-order:normal" />
      <path
         inkscape:connector-curvature="0"
         id="path3825"
         d="M 300.27931,-3.4509384 V -17.52653 h 15.01397 15.01396 l -3.75349,11.2604736 Q 322.80026,4.9944173 311.53978,8.7479092 l -11.26047,3.7534908 8.44536,-2.8151187 8.44535,-2.8151181 -5.63024,1.876746 q -5.63023,1.8767448 -11.26047,1.8767448 h -5.63023 2.81511 2.81512 V -3.4509384"
         style="fill:#ec1b06;fill-opacity:1;stroke:#f5921d;stroke-width:1.49555099;stroke-linecap:round;stroke-linejoin:round;stroke-miterlimit:4;stroke-dasharray:none;stroke-opacity:1;paint-order:normal" />
      <path
         inkscape:connector-curvature="0"
         id="path3639-3"
         d="m 122.15887,-350.7281 q 0,-7.50699 7.50698,-7.50699 7.50698,0 7.50698,7.50699 0,7.50699 -7.50698,7.50699 -7.50698,0 -7.50698,-7.50699"
         style="fill:#fbae1d;fill-opacity:1;stroke:#f5921d;stroke-width:1.49555099;stroke-linecap:round;stroke-linejoin:round;stroke-miterlimit:4;stroke-dasharray:none;stroke-opacity:1;paint-order:normal" />
      <path
         inkscape:connector-curvature="0"
         id="path3639-6"
         d="m 207.55079,-425.79793 q 0,-7.50698 7.50699,-7.50698 7.50698,0 7.50698,7.50698 0,7.50699 -7.50698,7.50699 -7.50699,0 -7.50699,-7.50699"
         style="fill:#fbae1d;fill-opacity:1;stroke:#f5921d;stroke-width:1.49555099;stroke-linecap:round;stroke-linejoin:round;stroke-miterlimit:4;stroke-dasharray:none;stroke-opacity:1;paint-order:normal" />
      <path
         inkscape:connector-curvature="0"
         id="path3639-7"
         d="m 388.65677,-439.87352 q 0,-7.50699 7.50698,-7.50699 7.50699,0 7.50699,7.50699 0,7.50699 -7.50699,7.50699 -7.50698,0 -7.50698,-7.50699"
         style="fill:#fbae1d;fill-opacity:1;stroke:#f5921d;stroke-width:1.49555099;stroke-linecap:round;stroke-linejoin:round;stroke-miterlimit:4;stroke-dasharray:none;stroke-opacity:1;paint-order:normal" />
      <path
         inkscape:connector-curvature="0"
         id="path3639-5"
         d="m 380.21142,-387.32464 q 0,-7.50698 7.50697,-7.50698 7.50699,0 7.50699,7.50698 0,7.50698 -7.50699,7.50698 -7.50697,0 -7.50697,-7.50698"
         style="fill:#fbae1d;fill-opacity:1;stroke:#f5921d;stroke-width:1.49555099;stroke-linecap:round;stroke-linejoin:round;stroke-miterlimit:4;stroke-dasharray:none;stroke-opacity:1;paint-order:normal" />
      <path
         inkscape:connector-curvature="0"
         id="path3639-35"
         d="m 421.49982,-327.26878 q 0,-7.50699 7.50698,-7.50699 7.50699,0 7.50699,7.50699 0,7.50699 -7.50699,7.50699 -7.50698,0 -7.50698,-7.50699"
         style="fill:#fbae1d;fill-opacity:1;stroke:#f5921d;stroke-width:1.49555099;stroke-linecap:round;stroke-linejoin:round;stroke-miterlimit:4;stroke-dasharray:none;stroke-opacity:1;paint-order:normal" />
      <path
         inkscape:connector-curvature="0"
         id="path3639-62"
         d="m 240.39384,-475.53169 q 0,-7.50698 7.50699,-7.50698 7.50698,0 7.50698,7.50698 0,7.50698 -7.50698,7.50698 -7.50699,0 -7.50699,-7.50698"
         style="fill:#fbae1d;fill-opacity:1;stroke:#f5921d;stroke-width:1.49555099;stroke-linecap:round;stroke-linejoin:round;stroke-miterlimit:4;stroke-dasharray:none;stroke-opacity:1;paint-order:normal" />
      <path
         inkscape:connector-curvature="0"
         id="path3639-9"
         d="m 325.78579,-539.34104 q 0,-7.50699 7.50698,-7.50699 7.50698,0 7.50698,7.50699 0,7.50698 -7.50698,7.50698 -7.50698,0 -7.50698,-7.50698"
         style="fill:#fbae1d;fill-opacity:1;stroke:#f5921d;stroke-width:1.49555099;stroke-linecap:round;stroke-linejoin:round;stroke-miterlimit:4;stroke-dasharray:none;stroke-opacity:1;paint-order:normal" />
      <path
         inkscape:connector-curvature="0"
         id="path3639-1"
         d="m 285.43575,-556.23176 q 0,-7.50697 7.50697,-7.50697 7.507,0 7.507,7.50697 0,7.50699 -7.507,7.50699 -7.50697,0 -7.50697,-7.50699"
         style="fill:#fbae1d;fill-opacity:1;stroke:#f5921d;stroke-width:1.49555099;stroke-linecap:round;stroke-linejoin:round;stroke-miterlimit:4;stroke-dasharray:none;stroke-opacity:1;paint-order:normal" />
      <path
         inkscape:connector-curvature="0"
         id="path3639-2"
         d="m 341.73813,-482.1003 q 0,-7.50698 7.50698,-7.50698 7.50698,0 7.50698,7.50698 0,7.50699 -7.50698,7.50699 -7.50698,0 -7.50698,-7.50699"
         style="fill:#fbae1d;fill-opacity:1;stroke:#f5921d;stroke-width:1.49555099;stroke-linecap:round;stroke-linejoin:round;stroke-miterlimit:4;stroke-dasharray:none;stroke-opacity:1;paint-order:normal" />
      <path
         inkscape:connector-curvature="0"
         id="path3639-70"
         d="m 307.9567,-489.60728 q 0,-7.50698 7.50699,-7.50698 7.50698,0 7.50698,7.50698 0,7.50698 -7.50698,7.50698 -7.50699,0 -7.50699,-7.50698"
         style="fill:#fbae1d;fill-opacity:1;stroke:#f5921d;stroke-width:1.49555099;stroke-linecap:round;stroke-linejoin:round;stroke-miterlimit:4;stroke-dasharray:none;stroke-opacity:1;paint-order:normal" />
    </g>
    <g
       id="g1035"
       transform="matrix(0.11556703,0,0,0.11556703,131.03329,110.08796)">
      <path
         inkscape:connector-curvature="0"
         id="path946-7-3"
         d="m 402.83026,1377.5316 0.23659,30.0867 h 55.34253 v -29.9592 z"
         style="fill:#00202d;fill-opacity:1;fill-rule:evenodd;stroke:#00202d;stroke-width:1.62003255;stroke-linecap:square;stroke-linejoin:miter;stroke-miterlimit:4;stroke-dasharray:none;stroke-opacity:1" />
      <g
         style="stroke-width:0.37795275;stroke-linecap:square;stroke-miterlimit:4;stroke-dasharray:none"
         id="g880"
         transform="matrix(4.2863363,0,0,4.2863363,-136.2363,908.8638)">
        <path
           inkscape:connector-curvature="0"
           id="path836"
           d="M 0,0.5 C 0.51974828,-0.6235587 3.088348,0.30173405 4.4299209,0 53.619947,0 102.80997,0 152,0 c 0,32 0,64 0,96 -2.16821,0.320926 -6.4972,-1.20011 -6,2.359842 -0.3049,1.718458 0.59915,4.645868 -0.42992,5.640158 -13.31202,0.084 -26.64789,-0.1677 -39.94508,0.125 0.45404,0.33418 -2.99936,-0.36515 -4.98484,-0.125 -5.498275,-0.0834 -11.050699,0.1668 -16.51516,-0.125 -0.199521,-2.53707 -0.214988,-5.213251 0,-7.75 C 85.882908,95.367901 89.375819,97.109585 90,95.070079 90.304954,93.135211 89.371423,90.453055 90.5,89 c 4.784888,-0.08344 9.62393,0.166817 14.375,-0.125 0.7571,-1.757908 -0.98458,-5.250819 1.05492,-5.875 1.6477,-0.455024 5.40351,1.206623 5.07008,-1.5 0.0146,-2.361396 -0.74686,-6.395766 2.92992,-5.5 2.06205,0.08728 4.998,0.539219 4.07008,-2.5 -0.0834,-6.118227 0.16676,-12.290585 -0.125,-18.375 -2.37046,-0.4044 -5.21622,0.20098 -7.3125,-0.3125 0.73961,-0.209375 0.3193,-3.282434 0.4375,-5.3125 -0.47885,-2.901946 -5.11904,-0.774287 -6.5,-1.5 0.88202,0 -3.38289,0 -4.859842,0 C 69.593439,48 39.546719,48 9.5,48 5.8774623,48.493511 10.288917,55.135338 6.0700791,55 4.0467194,55 2.0233597,55 0,55 0,36.833333 0,18.666667 0,0.5 Z M 116.5,48 c 2.64989,-0.888854 1.16908,-5.001073 1.375,-7.375 -1.90084,-0.774406 -7.34887,-1.792331 -6.875,1.734842 0.22103,2.141099 -1.04514,6.309306 2.5,5.640158 1,0 2,0 3,0 z"
           style="fill:#000000;fill-opacity:0;stroke-width:0.37795275;stroke-linecap:square;stroke-miterlimit:4;stroke-dasharray:none" />
      </g>
      <path
         sodipodi:nodetypes="ccccccccc"
         inkscape:connector-curvature="0"
         id="path904"
         d="m -137.61665,1141.9697 0.0431,90.0244 h 34.29296 v -34.3077 h 29.979374 v -25.7374 h 25.795207 v -29.9578 z"
         style="fill:#422100;fill-opacity:1;fill-rule:evenodd;stroke:#422100;stroke-width:1.62003255;stroke-linecap:square;stroke-linejoin:miter;stroke-miterlimit:4;stroke-dasharray:none;stroke-opacity:1" />
      <path
         inkscape:connector-curvature="0"
         id="path906"
         d="m -103.28056,1231.9941 v -34.3077 h 29.979384 v -25.7374 h 25.795207 v -29.9578 H 222.43559 v 55.7241 h -29.95412 v 34.3332 z"
         style="fill:#cf7200;fill-opacity:1;fill-rule:evenodd;stroke:#cf7200;stroke-width:1.62003255;stroke-linecap:square;stroke-linejoin:miter;stroke-miterlimit:4;stroke-dasharray:none;stroke-opacity:1" />
      <path
         inkscape:connector-curvature="0"
         id="path916"
         d="m -47.505969,1141.9912 v -29.9691 h -55.753021 v 29.9373 z"
         style="fill:#664313;fill-opacity:1;fill-rule:evenodd;stroke:#664313;stroke-width:1.62003255;stroke-linecap:square;stroke-linejoin:miter;stroke-miterlimit:4;stroke-dasharray:none;stroke-opacity:1" />
      <path
         inkscape:connector-curvature="0"
         id="path918"
         d="m -47.505969,1112.0221 v 29.9691 H 222.43559 v -29.9473 z"
         style="fill:#ffa000;fill-opacity:1;fill-rule:evenodd;stroke:#ffa000;stroke-width:1.62003255;stroke-linecap:square;stroke-linejoin:miter;stroke-miterlimit:4;stroke-dasharray:none;stroke-opacity:1" />
      <path
         inkscape:connector-curvature="0"
         id="path920"
         d="m 192.48147,1197.7153 v 89.9126 h 29.95412 v -25.718 h 59.74081 v -30.1383 h -59.87476 v -34.0228 z"
         style="fill:#cacaca;fill-opacity:1;fill-rule:evenodd;stroke:none;stroke-width:1.62003255;stroke-linecap:square;stroke-linejoin:miter;stroke-miterlimit:4;stroke-dasharray:none;stroke-opacity:1" />
      <path
         inkscape:connector-curvature="0"
         id="path930"
         d="m 222.43559,1141.9912 h 26.00832 v 30.0077 h 34.28703 v -60.2391 h 29.74069 v 60.4285 h 25.57318 v 60.0496 H 222.11299 Z"
         style="fill:#d6d6d6;fill-opacity:1;fill-rule:evenodd;stroke:none;stroke-width:1.62003255;stroke-linecap:square;stroke-linejoin:miter;stroke-miterlimit:4;stroke-dasharray:none;stroke-opacity:1" />
      <path
         inkscape:connector-curvature="0"
         id="path932"
         d="m 222.43559,1112.0439 v 29.9473 h 60.29535 v -30.2314 z"
         style="fill:#efefef;fill-opacity:1;fill-rule:evenodd;stroke:#efefef;stroke-width:1.62003255;stroke-linecap:square;stroke-linejoin:miter;stroke-miterlimit:4;stroke-dasharray:none;stroke-opacity:1" />
      <path
         inkscape:connector-curvature="0"
         id="path944"
         d="m 248.44391,1141.9912 v 30.0077 h 34.28703 v -30.0077 z"
         style="fill:#00a225;fill-opacity:1;fill-rule:evenodd;stroke:#00a225;stroke-width:1.62003255;stroke-linecap:square;stroke-linejoin:miter;stroke-miterlimit:4;stroke-dasharray:none;stroke-opacity:1" />
      <path
         inkscape:connector-curvature="0"
         id="path946"
         d="m 312.47163,1111.7598 0.11101,30.2666 h 25.98591 v -30.1383 z"
         style="fill:#1f404c;fill-opacity:1;fill-rule:evenodd;stroke:#1f404c;stroke-width:1.62003255;stroke-linecap:square;stroke-linejoin:miter;stroke-miterlimit:4;stroke-dasharray:none;stroke-opacity:1" />
      <path
         inkscape:connector-curvature="0"
         id="path946-3"
         d="m 338.44125,1077.737 0.1273,34.1511 h 29.75383 v -34.0063 z"
         style="fill:#275e71;fill-opacity:1;fill-rule:evenodd;stroke:#275e71;stroke-width:1.62003255;stroke-linecap:square;stroke-linejoin:miter;stroke-miterlimit:4;stroke-dasharray:none;stroke-opacity:1" />
      <path
         inkscape:connector-curvature="0"
         id="path963"
         d="m 312.58264,1142.0264 h 55.77116 v 89.6433 h -29.74071 v 30.4984 h -25.95205 v 25.3837 h -64.596 v 29.9301 h -25.38377 v 34.4765 h 89.97977 v 25.5732 h 90.16922 v 30.309 h 25.47844 v 29.9301 h -25.66791 v 34.287 h -34.00286 v 25.7626 h -55.97689 v 29.9301 h -64.78543 v -29.9301 h -55.12444 v -25.952 h -30.30899 v -34.2871 h -30.11953 v -85.8123 h 30.49841 v -33.9081 h 30.11954 v -30.1196 h 29.36181 v -25.5731 h 60.42853 v -29.9302 h 55.31387 v -60.0496 h -25.57318 l 0.11101,-30.1619 v 0"
         style="fill:#000000;fill-opacity:1;fill-rule:evenodd;stroke:#000000;stroke-width:1.62003255;stroke-linecap:square;stroke-linejoin:miter;stroke-miterlimit:4;stroke-dasharray:none;stroke-opacity:1" />
      <path
         sodipodi:nodetypes="ccccc"
         inkscape:connector-curvature="0"
         id="path946-7"
         d="m 312.55003,1351.9275 0.11101,25.4878 h 25.98591 v -25.3797 z"
         style="fill:#00202d;fill-opacity:1;fill-rule:evenodd;stroke:#00202d;stroke-width:1.61269236;stroke-linecap:square;stroke-linejoin:miter;stroke-miterlimit:4;stroke-dasharray:none;stroke-opacity:1" />
      <path
         sodipodi:nodetypes="ccccc"
         inkscape:connector-curvature="0"
         id="path946-7-5"
         d="m 338.49599,1352.0225 0.11102,25.2979 h 150.10161 v -25.1907 z"
         style="fill:#1f404c;fill-opacity:1;fill-rule:evenodd;stroke:#1f404c;stroke-width:1.60710204;stroke-linecap:square;stroke-linejoin:miter;stroke-miterlimit:4;stroke-dasharray:none;stroke-opacity:1" />
      <path
         inkscape:connector-curvature="0"
         id="path946-7-3-5"
         d="m 490.17345,1315.8885 0.10932,34.3575 h 25.53983 v -34.2118 z"
         style="fill:#00202d;fill-opacity:1;fill-rule:evenodd;stroke:#00202d;stroke-width:1.62003255;stroke-linecap:square;stroke-linejoin:miter;stroke-miterlimit:4;stroke-dasharray:none;stroke-opacity:1" />
      <path
         inkscape:connector-curvature="0"
         id="path1031"
         d="m 247.87561,1527.7504 v 29.5149 h -37.62929 v -29.8705 z"
         style="fill:#664313;fill-opacity:1;fill-rule:evenodd;stroke:#664313;stroke-width:1.62003255;stroke-linecap:square;stroke-linejoin:miter;stroke-miterlimit:4;stroke-dasharray:none;stroke-opacity:1" />
      <text
         xml:space="preserve"
         style="font-style:normal;font-weight:normal;font-size:287.03088379px;line-height:546.29998207%;font-family:sans-serif;letter-spacing:547.79852295px;word-spacing:0px;fill:#000000;fill-opacity:1;stroke:none;stroke-width:7.17577267px;stroke-linecap:butt;stroke-linejoin:miter;stroke-opacity:1"
         x="-819.26562"
         y="1045.5648"
         id="text1039"
         transform="scale(0.84713385,1.180451)"><tspan
           sodipodi:role="line"
           id="tspan1037"
           x="-819.26562"
           y="1045.5648"
           style="font-style:normal;font-variant:normal;font-weight:normal;font-stretch:normal;font-family:'Yanone Kaffeesatz';-inkscape-font-specification:'Yanone Kaffeesatz';letter-spacing:0px;stroke-width:7.17577267px">404</tspan></text>
      <path
         inkscape:connector-curvature="0"
         id="path1031-3"
         d="m 497.18038,1557.2653 v 29.5148 H -964.13035 v -29.8704 z"
         style="fill:#33220a;fill-opacity:1;fill-rule:evenodd;stroke:none;stroke-width:10.09559631;stroke-linecap:square;stroke-linejoin:miter;stroke-miterlimit:4;stroke-dasharray:none;stroke-opacity:1" />
    </g>
  </g>
</svg>
