<?xml version="1.0" encoding="UTF-8" standalone="no"?>
<!-- Created with Inkscape (http://www.inkscape.org/) -->

<svg
   xmlns:dc="http://purl.org/dc/elements/1.1/"
   xmlns:cc="http://creativecommons.org/ns#"
   xmlns:rdf="http://www.w3.org/1999/02/22-rdf-syntax-ns#"
   xmlns:svg="http://www.w3.org/2000/svg"
   xmlns="http://www.w3.org/2000/svg"
   xmlns:sodipodi="http://sodipodi.sourceforge.net/DTD/sodipodi-0.dtd"
   xmlns:inkscape="http://www.inkscape.org/namespaces/inkscape"
   version="1.1"
   id="svg2"
   width="600"
   height="600"
   viewBox="0 0 600 600"
   sodipodi:docname="toucan.svg"
   inkscape:version="0.92.3 (2405546, 2018-03-11)">
  <metadata
     id="metadata8">
    <rdf:RDF>
      <cc:Work
         rdf:about="">
        <dc:format>image/svg+xml</dc:format>
        <dc:type
           rdf:resource="http://purl.org/dc/dcmitype/StillImage" />
        <dc:title></dc:title>
      </cc:Work>
    </rdf:RDF>
  </metadata>
  <defs
     id="defs6" />
  <sodipodi:namedview
     pagecolor="#ffffff"
     bordercolor="#666666"
     borderopacity="1"
     objecttolerance="10"
     gridtolerance="10"
     guidetolerance="10"
     inkscape:pageopacity="0"
     inkscape:pageshadow="2"
     inkscape:window-width="1863"
     inkscape:window-height="1025"
     id="namedview4"
     showgrid="false"
     inkscape:zoom="0.5"
     inkscape:cx="-36.126"
     inkscape:cy="-123.41998"
     inkscape:window-x="57"
     inkscape:window-y="27"
     inkscape:window-maximized="1"
     inkscape:current-layer="svg2" />
  <path
     style="fill:#00202d;fill-opacity:1;fill-rule:evenodd;stroke:#00202d;stroke-width:1.48037028;stroke-linecap:square;stroke-linejoin:miter;stroke-miterlimit:4;stroke-dasharray:none;stroke-opacity:1"
     d="m 494.40669,434.80364 0.2162,27.49297 h 50.57147 V 434.9202 Z"
     id="path946-7-3"
     inkscape:connector-curvature="0" />
  <g
     transform="matrix(3.9168131,0,0,3.9168131,1.8128232,6.5394923)"
     id="g880"
     style="stroke-width:0.37795275;stroke-linecap:square;stroke-miterlimit:4;stroke-dasharray:none">
    <path
       style="fill:#000000;fill-opacity:0;stroke-width:0.37795275;stroke-linecap:square;stroke-miterlimit:4;stroke-dasharray:none"
       d="M 0,0.5 C 0.51974828,-0.6235587 3.088348,0.30173405 4.4299209,0 53.619947,0 102.80997,0 152,0 c 0,32 0,64 0,96 -2.16821,0.320926 -6.4972,-1.20011 -6,2.359842 -0.3049,1.718458 0.59915,4.645868 -0.42992,5.640158 -13.31202,0.084 -26.64789,-0.1677 -39.94508,0.125 0.45404,0.33418 -2.99936,-0.36515 -4.98484,-0.125 -5.498275,-0.0834 -11.050699,0.1668 -16.51516,-0.125 -0.199521,-2.53707 -0.214988,-5.213251 0,-7.75 C 85.882908,95.367901 89.375819,97.109585 90,95.070079 90.304954,93.135211 89.371423,90.453055 90.5,89 c 4.784888,-0.08344 9.62393,0.166817 14.375,-0.125 0.7571,-1.757908 -0.98458,-5.250819 1.05492,-5.875 1.6477,-0.455024 5.40351,1.206623 5.07008,-1.5 0.0146,-2.361396 -0.74686,-6.395766 2.92992,-5.5 2.06205,0.08728 4.998,0.539219 4.07008,-2.5 -0.0834,-6.118227 0.16676,-12.290585 -0.125,-18.375 -2.37046,-0.4044 -5.21622,0.20098 -7.3125,-0.3125 0.73961,-0.209375 0.3193,-3.282434 0.4375,-5.3125 -0.47885,-2.901946 -5.11904,-0.774287 -6.5,-1.5 0.88202,0 -3.38289,0 -4.859842,0 C 69.593439,48 39.546719,48 9.5,48 5.8774623,48.493511 10.288917,55.135338 6.0700791,55 4.0467194,55 2.0233597,55 0,55 0,36.833333 0,18.666667 0,0.5 Z M 116.5,48 c 2.64989,-0.888854 1.16908,-5.001073 1.375,-7.375 -1.90084,-0.774406 -7.34887,-1.792331 -6.875,1.734842 0.22103,2.141099 -1.04514,6.309306 2.5,5.640158 1,0 2,0 3,0 z"
       id="path836"
       inkscape:connector-curvature="0" />
  </g>
  <path
     style="fill:#422100;fill-opacity:1;fill-rule:evenodd;stroke:#422100;stroke-width:1.48037028;stroke-linecap:square;stroke-linejoin:miter;stroke-miterlimit:4;stroke-dasharray:none;stroke-opacity:1"
     d="m 0.55147301,219.54942 0.0394171,82.26345 H 31.927469 V 270.46278 H 59.32234 v -23.51851 h 23.571413 v -27.37515 z"
     id="path904"
     inkscape:connector-curvature="0"
     sodipodi:nodetypes="ccccccccc" />
  <path
     style="fill:#cf7200;fill-opacity:1;fill-rule:evenodd;stroke:#cf7200;stroke-width:1.48037028;stroke-linecap:square;stroke-linejoin:miter;stroke-miterlimit:4;stroke-dasharray:none;stroke-opacity:1"
     d="M 31.927469,301.81287 V 270.46278 H 59.32234 V 246.94427 H 82.893753 V 219.56912 H 329.56377 v 50.92014 h -27.37179 v 31.37335 z"
     id="path906"
     inkscape:connector-curvature="0" />
  <path
     style="fill:#664313;fill-opacity:1;fill-rule:evenodd;stroke:#664313;stroke-width:1.48037028;stroke-linecap:square;stroke-linejoin:miter;stroke-miterlimit:4;stroke-dasharray:none;stroke-opacity:1"
     d="M 82.893753,219.56912 V 192.18358 H 31.947178 v 27.35648 z"
     id="path916"
     inkscape:connector-curvature="0" />
  <path
     style="fill:#ffa000;fill-opacity:1;fill-rule:evenodd;stroke:#ffa000;stroke-width:1.48037028;stroke-linecap:square;stroke-linejoin:miter;stroke-miterlimit:4;stroke-dasharray:none;stroke-opacity:1"
     d="m 82.893753,192.18358 v 27.38554 H 329.56377 v -27.36556 z"
     id="path918"
     inkscape:connector-curvature="0" />
  <path
     style="fill:#cacaca;fill-opacity:1;fill-rule:evenodd;stroke:none;stroke-width:1.48037028;stroke-linecap:square;stroke-linejoin:miter;stroke-miterlimit:4;stroke-dasharray:none;stroke-opacity:1"
     d="m 302.19198,270.48926 v 82.16126 h 27.37179 v -23.50088 h 54.59058 v -27.54009 h -54.71298 v -31.0897 z"
     id="path920"
     inkscape:connector-curvature="0" />
  <path
     style="fill:#d6d6d6;fill-opacity:1;fill-rule:evenodd;stroke:none;stroke-width:1.48037028;stroke-linecap:square;stroke-linejoin:miter;stroke-miterlimit:4;stroke-dasharray:none;stroke-opacity:1"
     d="m 329.56377,219.56912 h 23.76615 v 27.42067 h 31.33116 v -55.04588 h 27.17676 v 55.219 h 23.36853 V 302.0357 H 329.26898 Z"
     id="path930"
     inkscape:connector-curvature="0" />
  <path
     style="fill:#efefef;fill-opacity:1;fill-rule:evenodd;stroke:#efefef;stroke-width:1.48037028;stroke-linecap:square;stroke-linejoin:miter;stroke-miterlimit:4;stroke-dasharray:none;stroke-opacity:1"
     d="m 329.56377,192.20356 v 27.36556 h 55.09731 v -27.62521 z"
     id="path932"
     inkscape:connector-curvature="0" />
  <path
     style="fill:#00a225;fill-opacity:1;fill-rule:evenodd;stroke:#00a225;stroke-width:1.48037028;stroke-linecap:square;stroke-linejoin:miter;stroke-miterlimit:4;stroke-dasharray:none;stroke-opacity:1"
     d="m 353.32992,219.56912 v 27.42067 h 31.33116 v -27.42067 z"
     id="path944"
     inkscape:connector-curvature="0" />
  <path
     style="fill:#1f404c;fill-opacity:1;fill-rule:evenodd;stroke:#1f404c;stroke-width:1.48037028;stroke-linecap:square;stroke-linejoin:miter;stroke-miterlimit:4;stroke-dasharray:none;stroke-opacity:1"
     d="m 411.83784,191.94391 0.10144,27.65737 h 23.74568 v -27.5401 z"
     id="path946"
     inkscape:connector-curvature="0" />
  <path
     style="fill:#275e71;fill-opacity:1;fill-rule:evenodd;stroke:#275e71;stroke-width:1.48037028;stroke-linecap:square;stroke-linejoin:miter;stroke-miterlimit:4;stroke-dasharray:none;stroke-opacity:1"
     d="m 435.56863,160.85421 0.11633,31.20697 h 27.18876 v -31.07466 z"
     id="path946-3"
     inkscape:connector-curvature="0" />
  <path
     style="fill:#000000;fill-opacity:1;fill-rule:evenodd;stroke:#000000;stroke-width:1.48037028;stroke-linecap:square;stroke-linejoin:miter;stroke-miterlimit:4;stroke-dasharray:none;stroke-opacity:1"
     d="m 411.93928,219.60128 h 50.96315 v 81.91513 h -27.17677 v 27.86914 H 412.01092 V 352.581 h -59.0272 v 27.34985 h -23.19545 v 31.50426 h 82.22265 v 23.36853 h 82.39577 v 27.69606 h 23.28196 v 27.34985 h -23.45509 v 31.33113 h -31.07149 v 23.54166 h -51.15115 v 27.34985 h -59.2003 V 544.72234 H 302.43843 V 521.0076 h -27.69606 v -31.33117 h -27.52294 v -78.41445 h 27.86915 v -30.98492 h 27.52295 v -27.52298 h 26.83054 v -23.36853 h 55.21901 V 302.0357 h 50.54529 v -54.87279 h -23.36853 l 0.10144,-27.56163 v 0"
     id="path963"
     inkscape:connector-curvature="0" />
  <path
     style="fill:#00202d;fill-opacity:1;fill-rule:evenodd;stroke:#00202d;stroke-width:1.47366285;stroke-linecap:square;stroke-linejoin:miter;stroke-miterlimit:4;stroke-dasharray:none;stroke-opacity:1"
     d="m 411.90948,411.40691 0.10144,23.29046 h 23.74568 v -23.19172 z"
     id="path946-7"
     inkscape:connector-curvature="0"
     sodipodi:nodetypes="ccccc" />
  <path
     style="fill:#1f404c;fill-opacity:1;fill-rule:evenodd;stroke:#1f404c;stroke-width:1.4685545;stroke-linecap:square;stroke-linejoin:miter;stroke-miterlimit:4;stroke-dasharray:none;stroke-opacity:1"
     d="m 435.61865,411.49366 0.10145,23.117 h 137.16142 v -23.019 z"
     id="path946-7-5"
     inkscape:connector-curvature="0"
     sodipodi:nodetypes="ccccc" />
  <path
     style="fill:#00202d;fill-opacity:1;fill-rule:evenodd;stroke:#00202d;stroke-width:1.48037028;stroke-linecap:square;stroke-linejoin:miter;stroke-miterlimit:4;stroke-dasharray:none;stroke-opacity:1"
     d="m 574.22006,378.47473 0.0999,31.39561 h 23.33805 v -31.26247 z"
     id="path946-7-3-5"
     inkscape:connector-curvature="0" />
  <path
     style="fill:#664313;fill-opacity:1;fill-rule:evenodd;stroke:#664313;stroke-width:1.48037028;stroke-linecap:square;stroke-linejoin:miter;stroke-miterlimit:4;stroke-dasharray:none;stroke-opacity:1"
     d="m 352.81062,572.07219 v 26.97035 h -34.38529 v -27.29529 z"
     id="path1031"
     inkscape:connector-curvature="0" />
</svg>
